<?xml version="1.0" encoding="utf-8" standalone="no"?>
<!DOCTYPE svg PUBLIC "-//W3C//DTD SVG 1.1//EN"
  "http://www.w3.org/Graphics/SVG/1.1/DTD/svg11.dtd">
<svg xmlns:xlink="http://www.w3.org/1999/xlink" width="527.4pt" height="390.6pt" viewBox="0 0 527.4 390.6" xmlns="http://www.w3.org/2000/svg" version="1.1">
 <metadata>
  <rdf:RDF xmlns:dc="http://purl.org/dc/elements/1.1/" xmlns:cc="http://creativecommons.org/ns#" xmlns:rdf="http://www.w3.org/1999/02/22-rdf-syntax-ns#">
   <cc:Work>
    <dc:type rdf:resource="http://purl.org/dc/dcmitype/StillImage"/>
    <dc:date>2026-04-10T14:47:26.628341</dc:date>
    <dc:format>image/svg+xml</dc:format>
    <dc:creator>
     <cc:Agent>
      <dc:title>Matplotlib v3.6.3, https://matplotlib.org/</dc:title>
     </cc:Agent>
    </dc:creator>
   </cc:Work>
  </rdf:RDF>
 </metadata>
 <defs>
  <style type="text/css">*{stroke-linejoin: round; stroke-linecap: butt}</style>
 </defs>
 <g id="figure_1">
  <g id="patch_1">
   <path d="M 0 390.6 
L 527.4 390.6 
L 527.4 0 
L 0 0 
z
" style="fill: #ffffff"/>
  </g>
  <g id="axes_1">
   <g id="patch_2">
    <path d="M 66.6 280.44 
L 520.2 280.44 
L 520.2 82.44 
L 66.6 82.44 
z
" style="fill: #ffffff"/>
   </g>
   <g id="matplotlib.axis_1">
    <g id="xtick_1">
     <g id="line2d_1">
      <path d="M 87.218182 280.44 
L 87.218182 82.44 
" clip-path="url(#p00fcfe9a6d)" style="fill: none; stroke: #e5e7eb; stroke-width: 0.8; stroke-linecap: square"/>
     </g>
     <g id="line2d_2">
      <defs>
       <path id="m71d62e52df" d="M 0 0 
L 0 3.5 
" style="stroke: #000000; stroke-width: 0.8"/>
      </defs>
      <g>
       <use xlink:href="#m71d62e52df" x="87.218182" y="280.44" style="stroke: #000000; stroke-width: 0.8"/>
      </g>
     </g>
     <g id="text_1">
      <!-- 32 -->
      <g transform="translate(80.855682 295.038437) scale(0.1 -0.1)">
       <defs>
        <path id="DejaVuSans-33" d="M 2597 2516 
Q 3050 2419 3304 2112 
Q 3559 1806 3559 1356 
Q 3559 666 3084 287 
Q 2609 -91 1734 -91 
Q 1441 -91 1130 -33 
Q 819 25 488 141 
L 488 750 
Q 750 597 1062 519 
Q 1375 441 1716 441 
Q 2309 441 2620 675 
Q 2931 909 2931 1356 
Q 2931 1769 2642 2001 
Q 2353 2234 1838 2234 
L 1294 2234 
L 1294 2753 
L 1863 2753 
Q 2328 2753 2575 2939 
Q 2822 3125 2822 3475 
Q 2822 3834 2567 4026 
Q 2313 4219 1838 4219 
Q 1578 4219 1281 4162 
Q 984 4106 628 3988 
L 628 4550 
Q 988 4650 1302 4700 
Q 1616 4750 1894 4750 
Q 2613 4750 3031 4423 
Q 3450 4097 3450 3541 
Q 3450 3153 3228 2886 
Q 3006 2619 2597 2516 
z
" transform="scale(0.015625)"/>
        <path id="DejaVuSans-32" d="M 1228 531 
L 3431 531 
L 3431 0 
L 469 0 
L 469 531 
Q 828 903 1448 1529 
Q 2069 2156 2228 2338 
Q 2531 2678 2651 2914 
Q 2772 3150 2772 3378 
Q 2772 3750 2511 3984 
Q 2250 4219 1831 4219 
Q 1534 4219 1204 4116 
Q 875 4013 500 3803 
L 500 4441 
Q 881 4594 1212 4672 
Q 1544 4750 1819 4750 
Q 2544 4750 2975 4387 
Q 3406 4025 3406 3419 
Q 3406 3131 3298 2873 
Q 3191 2616 2906 2266 
Q 2828 2175 2409 1742 
Q 1991 1309 1228 531 
z
" transform="scale(0.015625)"/>
       </defs>
       <use xlink:href="#DejaVuSans-33"/>
       <use xlink:href="#DejaVuSans-32" x="63.623047"/>
      </g>
     </g>
    </g>
    <g id="xtick_2">
     <g id="line2d_3">
      <path d="M 224.672727 280.44 
L 224.672727 82.44 
" clip-path="url(#p00fcfe9a6d)" style="fill: none; stroke: #e5e7eb; stroke-width: 0.8; stroke-linecap: square"/>
     </g>
     <g id="line2d_4">
      <g>
       <use xlink:href="#m71d62e52df" x="224.672727" y="280.44" style="stroke: #000000; stroke-width: 0.8"/>
      </g>
     </g>
     <g id="text_2">
      <!-- 64 -->
      <g transform="translate(218.310227 295.038437) scale(0.1 -0.1)">
       <defs>
        <path id="DejaVuSans-36" d="M 2113 2584 
Q 1688 2584 1439 2293 
Q 1191 2003 1191 1497 
Q 1191 994 1439 701 
Q 1688 409 2113 409 
Q 2538 409 2786 701 
Q 3034 994 3034 1497 
Q 3034 2003 2786 2293 
Q 2538 2584 2113 2584 
z
M 3366 4563 
L 3366 3988 
Q 3128 4100 2886 4159 
Q 2644 4219 2406 4219 
Q 1781 4219 1451 3797 
Q 1122 3375 1075 2522 
Q 1259 2794 1537 2939 
Q 1816 3084 2150 3084 
Q 2853 3084 3261 2657 
Q 3669 2231 3669 1497 
Q 3669 778 3244 343 
Q 2819 -91 2113 -91 
Q 1303 -91 875 529 
Q 447 1150 447 2328 
Q 447 3434 972 4092 
Q 1497 4750 2381 4750 
Q 2619 4750 2861 4703 
Q 3103 4656 3366 4563 
z
" transform="scale(0.015625)"/>
        <path id="DejaVuSans-34" d="M 2419 4116 
L 825 1625 
L 2419 1625 
L 2419 4116 
z
M 2253 4666 
L 3047 4666 
L 3047 1625 
L 3713 1625 
L 3713 1100 
L 3047 1100 
L 3047 0 
L 2419 0 
L 2419 1100 
L 313 1100 
L 313 1709 
L 2253 4666 
z
" transform="scale(0.015625)"/>
       </defs>
       <use xlink:href="#DejaVuSans-36"/>
       <use xlink:href="#DejaVuSans-34" x="63.623047"/>
      </g>
     </g>
    </g>
    <g id="xtick_3">
     <g id="line2d_5">
      <path d="M 499.581818 280.44 
L 499.581818 82.44 
" clip-path="url(#p00fcfe9a6d)" style="fill: none; stroke: #e5e7eb; stroke-width: 0.8; stroke-linecap: square"/>
     </g>
     <g id="line2d_6">
      <g>
       <use xlink:href="#m71d62e52df" x="499.581818" y="280.44" style="stroke: #000000; stroke-width: 0.8"/>
      </g>
     </g>
     <g id="text_3">
      <!-- 128 -->
      <g transform="translate(490.038068 295.038437) scale(0.1 -0.1)">
       <defs>
        <path id="DejaVuSans-31" d="M 794 531 
L 1825 531 
L 1825 4091 
L 703 3866 
L 703 4441 
L 1819 4666 
L 2450 4666 
L 2450 531 
L 3481 531 
L 3481 0 
L 794 0 
L 794 531 
z
" transform="scale(0.015625)"/>
        <path id="DejaVuSans-38" d="M 2034 2216 
Q 1584 2216 1326 1975 
Q 1069 1734 1069 1313 
Q 1069 891 1326 650 
Q 1584 409 2034 409 
Q 2484 409 2743 651 
Q 3003 894 3003 1313 
Q 3003 1734 2745 1975 
Q 2488 2216 2034 2216 
z
M 1403 2484 
Q 997 2584 770 2862 
Q 544 3141 544 3541 
Q 544 4100 942 4425 
Q 1341 4750 2034 4750 
Q 2731 4750 3128 4425 
Q 3525 4100 3525 3541 
Q 3525 3141 3298 2862 
Q 3072 2584 2669 2484 
Q 3125 2378 3379 2068 
Q 3634 1759 3634 1313 
Q 3634 634 3220 271 
Q 2806 -91 2034 -91 
Q 1263 -91 848 271 
Q 434 634 434 1313 
Q 434 1759 690 2068 
Q 947 2378 1403 2484 
z
M 1172 3481 
Q 1172 3119 1398 2916 
Q 1625 2713 2034 2713 
Q 2441 2713 2670 2916 
Q 2900 3119 2900 3481 
Q 2900 3844 2670 4047 
Q 2441 4250 2034 4250 
Q 1625 4250 1398 4047 
Q 1172 3844 1172 3481 
z
" transform="scale(0.015625)"/>
       </defs>
       <use xlink:href="#DejaVuSans-31"/>
       <use xlink:href="#DejaVuSans-32" x="63.623047"/>
       <use xlink:href="#DejaVuSans-38" x="127.246094"/>
      </g>
     </g>
    </g>
    <g id="text_4">
     <!-- Concurrency level -->
     <g transform="translate(248.417969 308.716562) scale(0.1 -0.1)">
      <defs>
       <path id="DejaVuSans-43" d="M 4122 4306 
L 4122 3641 
Q 3803 3938 3442 4084 
Q 3081 4231 2675 4231 
Q 1875 4231 1450 3742 
Q 1025 3253 1025 2328 
Q 1025 1406 1450 917 
Q 1875 428 2675 428 
Q 3081 428 3442 575 
Q 3803 722 4122 1019 
L 4122 359 
Q 3791 134 3420 21 
Q 3050 -91 2638 -91 
Q 1578 -91 968 557 
Q 359 1206 359 2328 
Q 359 3453 968 4101 
Q 1578 4750 2638 4750 
Q 3056 4750 3426 4639 
Q 3797 4528 4122 4306 
z
" transform="scale(0.015625)"/>
       <path id="DejaVuSans-6f" d="M 1959 3097 
Q 1497 3097 1228 2736 
Q 959 2375 959 1747 
Q 959 1119 1226 758 
Q 1494 397 1959 397 
Q 2419 397 2687 759 
Q 2956 1122 2956 1747 
Q 2956 2369 2687 2733 
Q 2419 3097 1959 3097 
z
M 1959 3584 
Q 2709 3584 3137 3096 
Q 3566 2609 3566 1747 
Q 3566 888 3137 398 
Q 2709 -91 1959 -91 
Q 1206 -91 779 398 
Q 353 888 353 1747 
Q 353 2609 779 3096 
Q 1206 3584 1959 3584 
z
" transform="scale(0.015625)"/>
       <path id="DejaVuSans-6e" d="M 3513 2113 
L 3513 0 
L 2938 0 
L 2938 2094 
Q 2938 2591 2744 2837 
Q 2550 3084 2163 3084 
Q 1697 3084 1428 2787 
Q 1159 2491 1159 1978 
L 1159 0 
L 581 0 
L 581 3500 
L 1159 3500 
L 1159 2956 
Q 1366 3272 1645 3428 
Q 1925 3584 2291 3584 
Q 2894 3584 3203 3211 
Q 3513 2838 3513 2113 
z
" transform="scale(0.015625)"/>
       <path id="DejaVuSans-63" d="M 3122 3366 
L 3122 2828 
Q 2878 2963 2633 3030 
Q 2388 3097 2138 3097 
Q 1578 3097 1268 2742 
Q 959 2388 959 1747 
Q 959 1106 1268 751 
Q 1578 397 2138 397 
Q 2388 397 2633 464 
Q 2878 531 3122 666 
L 3122 134 
Q 2881 22 2623 -34 
Q 2366 -91 2075 -91 
Q 1284 -91 818 406 
Q 353 903 353 1747 
Q 353 2603 823 3093 
Q 1294 3584 2113 3584 
Q 2378 3584 2631 3529 
Q 2884 3475 3122 3366 
z
" transform="scale(0.015625)"/>
       <path id="DejaVuSans-75" d="M 544 1381 
L 544 3500 
L 1119 3500 
L 1119 1403 
Q 1119 906 1312 657 
Q 1506 409 1894 409 
Q 2359 409 2629 706 
Q 2900 1003 2900 1516 
L 2900 3500 
L 3475 3500 
L 3475 0 
L 2900 0 
L 2900 538 
Q 2691 219 2414 64 
Q 2138 -91 1772 -91 
Q 1169 -91 856 284 
Q 544 659 544 1381 
z
M 1991 3584 
L 1991 3584 
z
" transform="scale(0.015625)"/>
       <path id="DejaVuSans-72" d="M 2631 2963 
Q 2534 3019 2420 3045 
Q 2306 3072 2169 3072 
Q 1681 3072 1420 2755 
Q 1159 2438 1159 1844 
L 1159 0 
L 581 0 
L 581 3500 
L 1159 3500 
L 1159 2956 
Q 1341 3275 1631 3429 
Q 1922 3584 2338 3584 
Q 2397 3584 2469 3576 
Q 2541 3569 2628 3553 
L 2631 2963 
z
" transform="scale(0.015625)"/>
       <path id="DejaVuSans-65" d="M 3597 1894 
L 3597 1613 
L 953 1613 
Q 991 1019 1311 708 
Q 1631 397 2203 397 
Q 2534 397 2845 478 
Q 3156 559 3463 722 
L 3463 178 
Q 3153 47 2828 -22 
Q 2503 -91 2169 -91 
Q 1331 -91 842 396 
Q 353 884 353 1716 
Q 353 2575 817 3079 
Q 1281 3584 2069 3584 
Q 2775 3584 3186 3129 
Q 3597 2675 3597 1894 
z
M 3022 2063 
Q 3016 2534 2758 2815 
Q 2500 3097 2075 3097 
Q 1594 3097 1305 2825 
Q 1016 2553 972 2059 
L 3022 2063 
z
" transform="scale(0.015625)"/>
       <path id="DejaVuSans-79" d="M 2059 -325 
Q 1816 -950 1584 -1140 
Q 1353 -1331 966 -1331 
L 506 -1331 
L 506 -850 
L 844 -850 
Q 1081 -850 1212 -737 
Q 1344 -625 1503 -206 
L 1606 56 
L 191 3500 
L 800 3500 
L 1894 763 
L 2988 3500 
L 3597 3500 
L 2059 -325 
z
" transform="scale(0.015625)"/>
       <path id="DejaVuSans-20" transform="scale(0.015625)"/>
       <path id="DejaVuSans-6c" d="M 603 4863 
L 1178 4863 
L 1178 0 
L 603 0 
L 603 4863 
z
" transform="scale(0.015625)"/>
       <path id="DejaVuSans-76" d="M 191 3500 
L 800 3500 
L 1894 563 
L 2988 3500 
L 3597 3500 
L 2284 0 
L 1503 0 
L 191 3500 
z
" transform="scale(0.015625)"/>
      </defs>
      <use xlink:href="#DejaVuSans-43"/>
      <use xlink:href="#DejaVuSans-6f" x="69.824219"/>
      <use xlink:href="#DejaVuSans-6e" x="131.005859"/>
      <use xlink:href="#DejaVuSans-63" x="194.384766"/>
      <use xlink:href="#DejaVuSans-75" x="249.365234"/>
      <use xlink:href="#DejaVuSans-72" x="312.744141"/>
      <use xlink:href="#DejaVuSans-72" x="352.107422"/>
      <use xlink:href="#DejaVuSans-65" x="390.970703"/>
      <use xlink:href="#DejaVuSans-6e" x="452.494141"/>
      <use xlink:href="#DejaVuSans-63" x="515.873047"/>
      <use xlink:href="#DejaVuSans-79" x="570.853516"/>
      <use xlink:href="#DejaVuSans-20" x="630.033203"/>
      <use xlink:href="#DejaVuSans-6c" x="661.820312"/>
      <use xlink:href="#DejaVuSans-65" x="689.603516"/>
      <use xlink:href="#DejaVuSans-76" x="751.126953"/>
      <use xlink:href="#DejaVuSans-65" x="810.306641"/>
      <use xlink:href="#DejaVuSans-6c" x="871.830078"/>
     </g>
    </g>
   </g>
   <g id="matplotlib.axis_2">
    <g id="ytick_1">
     <g id="line2d_7">
      <path d="M 66.6 280.44 
L 520.2 280.44 
" clip-path="url(#p00fcfe9a6d)" style="fill: none; stroke: #e5e7eb; stroke-width: 0.8; stroke-linecap: square"/>
     </g>
     <g id="line2d_8">
      <defs>
       <path id="m562a7451c9" d="M 0 0 
L -3.5 0 
" style="stroke: #000000; stroke-width: 0.8"/>
      </defs>
      <g>
       <use xlink:href="#m562a7451c9" x="66.6" y="280.44" style="stroke: #000000; stroke-width: 0.8"/>
      </g>
     </g>
     <g id="text_5">
      <!-- 36 -->
      <g transform="translate(46.875 284.239219) scale(0.1 -0.1)">
       <use xlink:href="#DejaVuSans-33"/>
       <use xlink:href="#DejaVuSans-36" x="63.623047"/>
      </g>
     </g>
    </g>
    <g id="ytick_2">
     <g id="line2d_9">
      <path d="M 66.6 247.44 
L 520.2 247.44 
" clip-path="url(#p00fcfe9a6d)" style="fill: none; stroke: #e5e7eb; stroke-width: 0.8; stroke-linecap: square"/>
     </g>
     <g id="line2d_10">
      <g>
       <use xlink:href="#m562a7451c9" x="66.6" y="247.44" style="stroke: #000000; stroke-width: 0.8"/>
      </g>
     </g>
     <g id="text_6">
      <!-- 38 -->
      <g transform="translate(46.875 251.239219) scale(0.1 -0.1)">
       <use xlink:href="#DejaVuSans-33"/>
       <use xlink:href="#DejaVuSans-38" x="63.623047"/>
      </g>
     </g>
    </g>
    <g id="ytick_3">
     <g id="line2d_11">
      <path d="M 66.6 214.44 
L 520.2 214.44 
" clip-path="url(#p00fcfe9a6d)" style="fill: none; stroke: #e5e7eb; stroke-width: 0.8; stroke-linecap: square"/>
     </g>
     <g id="line2d_12">
      <g>
       <use xlink:href="#m562a7451c9" x="66.6" y="214.44" style="stroke: #000000; stroke-width: 0.8"/>
      </g>
     </g>
     <g id="text_7">
      <!-- 40 -->
      <g transform="translate(46.875 218.239219) scale(0.1 -0.1)">
       <defs>
        <path id="DejaVuSans-30" d="M 2034 4250 
Q 1547 4250 1301 3770 
Q 1056 3291 1056 2328 
Q 1056 1369 1301 889 
Q 1547 409 2034 409 
Q 2525 409 2770 889 
Q 3016 1369 3016 2328 
Q 3016 3291 2770 3770 
Q 2525 4250 2034 4250 
z
M 2034 4750 
Q 2819 4750 3233 4129 
Q 3647 3509 3647 2328 
Q 3647 1150 3233 529 
Q 2819 -91 2034 -91 
Q 1250 -91 836 529 
Q 422 1150 422 2328 
Q 422 3509 836 4129 
Q 1250 4750 2034 4750 
z
" transform="scale(0.015625)"/>
       </defs>
       <use xlink:href="#DejaVuSans-34"/>
       <use xlink:href="#DejaVuSans-30" x="63.623047"/>
      </g>
     </g>
    </g>
    <g id="ytick_4">
     <g id="line2d_13">
      <path d="M 66.6 181.44 
L 520.2 181.44 
" clip-path="url(#p00fcfe9a6d)" style="fill: none; stroke: #e5e7eb; stroke-width: 0.8; stroke-linecap: square"/>
     </g>
     <g id="line2d_14">
      <g>
       <use xlink:href="#m562a7451c9" x="66.6" y="181.44" style="stroke: #000000; stroke-width: 0.8"/>
      </g>
     </g>
     <g id="text_8">
      <!-- 42 -->
      <g transform="translate(46.875 185.239219) scale(0.1 -0.1)">
       <use xlink:href="#DejaVuSans-34"/>
       <use xlink:href="#DejaVuSans-32" x="63.623047"/>
      </g>
     </g>
    </g>
    <g id="ytick_5">
     <g id="line2d_15">
      <path d="M 66.6 148.44 
L 520.2 148.44 
" clip-path="url(#p00fcfe9a6d)" style="fill: none; stroke: #e5e7eb; stroke-width: 0.8; stroke-linecap: square"/>
     </g>
     <g id="line2d_16">
      <g>
       <use xlink:href="#m562a7451c9" x="66.6" y="148.44" style="stroke: #000000; stroke-width: 0.8"/>
      </g>
     </g>
     <g id="text_9">
      <!-- 44 -->
      <g transform="translate(46.875 152.239219) scale(0.1 -0.1)">
       <use xlink:href="#DejaVuSans-34"/>
       <use xlink:href="#DejaVuSans-34" x="63.623047"/>
      </g>
     </g>
    </g>
    <g id="ytick_6">
     <g id="line2d_17">
      <path d="M 66.6 115.44 
L 520.2 115.44 
" clip-path="url(#p00fcfe9a6d)" style="fill: none; stroke: #e5e7eb; stroke-width: 0.8; stroke-linecap: square"/>
     </g>
     <g id="line2d_18">
      <g>
       <use xlink:href="#m562a7451c9" x="66.6" y="115.44" style="stroke: #000000; stroke-width: 0.8"/>
      </g>
     </g>
     <g id="text_10">
      <!-- 46 -->
      <g transform="translate(46.875 119.239219) scale(0.1 -0.1)">
       <use xlink:href="#DejaVuSans-34"/>
       <use xlink:href="#DejaVuSans-36" x="63.623047"/>
      </g>
     </g>
    </g>
    <g id="ytick_7">
     <g id="line2d_19">
      <path d="M 66.6 82.44 
L 520.2 82.44 
" clip-path="url(#p00fcfe9a6d)" style="fill: none; stroke: #e5e7eb; stroke-width: 0.8; stroke-linecap: square"/>
     </g>
     <g id="line2d_20">
      <g>
       <use xlink:href="#m562a7451c9" x="66.6" y="82.44" style="stroke: #000000; stroke-width: 0.8"/>
      </g>
     </g>
     <g id="text_11">
      <!-- 48 -->
      <g transform="translate(46.875 86.239219) scale(0.1 -0.1)">
       <use xlink:href="#DejaVuSans-34"/>
       <use xlink:href="#DejaVuSans-38" x="63.623047"/>
      </g>
     </g>
    </g>
    <g id="text_12">
     <!-- Requests per second (RPS) -->
     <g transform="translate(40.795313 248.825937) rotate(-90) scale(0.1 -0.1)">
      <defs>
       <path id="DejaVuSans-52" d="M 2841 2188 
Q 3044 2119 3236 1894 
Q 3428 1669 3622 1275 
L 4263 0 
L 3584 0 
L 2988 1197 
Q 2756 1666 2539 1819 
Q 2322 1972 1947 1972 
L 1259 1972 
L 1259 0 
L 628 0 
L 628 4666 
L 2053 4666 
Q 2853 4666 3247 4331 
Q 3641 3997 3641 3322 
Q 3641 2881 3436 2590 
Q 3231 2300 2841 2188 
z
M 1259 4147 
L 1259 2491 
L 2053 2491 
Q 2509 2491 2742 2702 
Q 2975 2913 2975 3322 
Q 2975 3731 2742 3939 
Q 2509 4147 2053 4147 
L 1259 4147 
z
" transform="scale(0.015625)"/>
       <path id="DejaVuSans-71" d="M 947 1747 
Q 947 1113 1208 752 
Q 1469 391 1925 391 
Q 2381 391 2643 752 
Q 2906 1113 2906 1747 
Q 2906 2381 2643 2742 
Q 2381 3103 1925 3103 
Q 1469 3103 1208 2742 
Q 947 2381 947 1747 
z
M 2906 525 
Q 2725 213 2448 61 
Q 2172 -91 1784 -91 
Q 1150 -91 751 415 
Q 353 922 353 1747 
Q 353 2572 751 3078 
Q 1150 3584 1784 3584 
Q 2172 3584 2448 3432 
Q 2725 3281 2906 2969 
L 2906 3500 
L 3481 3500 
L 3481 -1331 
L 2906 -1331 
L 2906 525 
z
" transform="scale(0.015625)"/>
       <path id="DejaVuSans-73" d="M 2834 3397 
L 2834 2853 
Q 2591 2978 2328 3040 
Q 2066 3103 1784 3103 
Q 1356 3103 1142 2972 
Q 928 2841 928 2578 
Q 928 2378 1081 2264 
Q 1234 2150 1697 2047 
L 1894 2003 
Q 2506 1872 2764 1633 
Q 3022 1394 3022 966 
Q 3022 478 2636 193 
Q 2250 -91 1575 -91 
Q 1294 -91 989 -36 
Q 684 19 347 128 
L 347 722 
Q 666 556 975 473 
Q 1284 391 1588 391 
Q 1994 391 2212 530 
Q 2431 669 2431 922 
Q 2431 1156 2273 1281 
Q 2116 1406 1581 1522 
L 1381 1569 
Q 847 1681 609 1914 
Q 372 2147 372 2553 
Q 372 3047 722 3315 
Q 1072 3584 1716 3584 
Q 2034 3584 2315 3537 
Q 2597 3491 2834 3397 
z
" transform="scale(0.015625)"/>
       <path id="DejaVuSans-74" d="M 1172 4494 
L 1172 3500 
L 2356 3500 
L 2356 3053 
L 1172 3053 
L 1172 1153 
Q 1172 725 1289 603 
Q 1406 481 1766 481 
L 2356 481 
L 2356 0 
L 1766 0 
Q 1100 0 847 248 
Q 594 497 594 1153 
L 594 3053 
L 172 3053 
L 172 3500 
L 594 3500 
L 594 4494 
L 1172 4494 
z
" transform="scale(0.015625)"/>
       <path id="DejaVuSans-70" d="M 1159 525 
L 1159 -1331 
L 581 -1331 
L 581 3500 
L 1159 3500 
L 1159 2969 
Q 1341 3281 1617 3432 
Q 1894 3584 2278 3584 
Q 2916 3584 3314 3078 
Q 3713 2572 3713 1747 
Q 3713 922 3314 415 
Q 2916 -91 2278 -91 
Q 1894 -91 1617 61 
Q 1341 213 1159 525 
z
M 3116 1747 
Q 3116 2381 2855 2742 
Q 2594 3103 2138 3103 
Q 1681 3103 1420 2742 
Q 1159 2381 1159 1747 
Q 1159 1113 1420 752 
Q 1681 391 2138 391 
Q 2594 391 2855 752 
Q 3116 1113 3116 1747 
z
" transform="scale(0.015625)"/>
       <path id="DejaVuSans-64" d="M 2906 2969 
L 2906 4863 
L 3481 4863 
L 3481 0 
L 2906 0 
L 2906 525 
Q 2725 213 2448 61 
Q 2172 -91 1784 -91 
Q 1150 -91 751 415 
Q 353 922 353 1747 
Q 353 2572 751 3078 
Q 1150 3584 1784 3584 
Q 2172 3584 2448 3432 
Q 2725 3281 2906 2969 
z
M 947 1747 
Q 947 1113 1208 752 
Q 1469 391 1925 391 
Q 2381 391 2643 752 
Q 2906 1113 2906 1747 
Q 2906 2381 2643 2742 
Q 2381 3103 1925 3103 
Q 1469 3103 1208 2742 
Q 947 2381 947 1747 
z
" transform="scale(0.015625)"/>
       <path id="DejaVuSans-28" d="M 1984 4856 
Q 1566 4138 1362 3434 
Q 1159 2731 1159 2009 
Q 1159 1288 1364 580 
Q 1569 -128 1984 -844 
L 1484 -844 
Q 1016 -109 783 600 
Q 550 1309 550 2009 
Q 550 2706 781 3412 
Q 1013 4119 1484 4856 
L 1984 4856 
z
" transform="scale(0.015625)"/>
       <path id="DejaVuSans-50" d="M 1259 4147 
L 1259 2394 
L 2053 2394 
Q 2494 2394 2734 2622 
Q 2975 2850 2975 3272 
Q 2975 3691 2734 3919 
Q 2494 4147 2053 4147 
L 1259 4147 
z
M 628 4666 
L 2053 4666 
Q 2838 4666 3239 4311 
Q 3641 3956 3641 3272 
Q 3641 2581 3239 2228 
Q 2838 1875 2053 1875 
L 1259 1875 
L 1259 0 
L 628 0 
L 628 4666 
z
" transform="scale(0.015625)"/>
       <path id="DejaVuSans-53" d="M 3425 4513 
L 3425 3897 
Q 3066 4069 2747 4153 
Q 2428 4238 2131 4238 
Q 1616 4238 1336 4038 
Q 1056 3838 1056 3469 
Q 1056 3159 1242 3001 
Q 1428 2844 1947 2747 
L 2328 2669 
Q 3034 2534 3370 2195 
Q 3706 1856 3706 1288 
Q 3706 609 3251 259 
Q 2797 -91 1919 -91 
Q 1588 -91 1214 -16 
Q 841 59 441 206 
L 441 856 
Q 825 641 1194 531 
Q 1563 422 1919 422 
Q 2459 422 2753 634 
Q 3047 847 3047 1241 
Q 3047 1584 2836 1778 
Q 2625 1972 2144 2069 
L 1759 2144 
Q 1053 2284 737 2584 
Q 422 2884 422 3419 
Q 422 4038 858 4394 
Q 1294 4750 2059 4750 
Q 2388 4750 2728 4690 
Q 3069 4631 3425 4513 
z
" transform="scale(0.015625)"/>
       <path id="DejaVuSans-29" d="M 513 4856 
L 1013 4856 
Q 1481 4119 1714 3412 
Q 1947 2706 1947 2009 
Q 1947 1309 1714 600 
Q 1481 -109 1013 -844 
L 513 -844 
Q 928 -128 1133 580 
Q 1338 1288 1338 2009 
Q 1338 2731 1133 3434 
Q 928 4138 513 4856 
z
" transform="scale(0.015625)"/>
      </defs>
      <use xlink:href="#DejaVuSans-52"/>
      <use xlink:href="#DejaVuSans-65" x="64.982422"/>
      <use xlink:href="#DejaVuSans-71" x="126.505859"/>
      <use xlink:href="#DejaVuSans-75" x="189.982422"/>
      <use xlink:href="#DejaVuSans-65" x="253.361328"/>
      <use xlink:href="#DejaVuSans-73" x="314.884766"/>
      <use xlink:href="#DejaVuSans-74" x="366.984375"/>
      <use xlink:href="#DejaVuSans-73" x="406.193359"/>
      <use xlink:href="#DejaVuSans-20" x="458.292969"/>
      <use xlink:href="#DejaVuSans-70" x="490.080078"/>
      <use xlink:href="#DejaVuSans-65" x="553.556641"/>
      <use xlink:href="#DejaVuSans-72" x="615.080078"/>
      <use xlink:href="#DejaVuSans-20" x="656.193359"/>
      <use xlink:href="#DejaVuSans-73" x="687.980469"/>
      <use xlink:href="#DejaVuSans-65" x="740.080078"/>
      <use xlink:href="#DejaVuSans-63" x="801.603516"/>
      <use xlink:href="#DejaVuSans-6f" x="856.583984"/>
      <use xlink:href="#DejaVuSans-6e" x="917.765625"/>
      <use xlink:href="#DejaVuSans-64" x="981.144531"/>
      <use xlink:href="#DejaVuSans-20" x="1044.621094"/>
      <use xlink:href="#DejaVuSans-28" x="1076.408203"/>
      <use xlink:href="#DejaVuSans-52" x="1115.421875"/>
      <use xlink:href="#DejaVuSans-50" x="1184.904297"/>
      <use xlink:href="#DejaVuSans-53" x="1245.207031"/>
      <use xlink:href="#DejaVuSans-29" x="1308.683594"/>
     </g>
    </g>
   </g>
   <g id="patch_3">
    <path d="M 66.6 280.44 
L 66.6 82.44 
" style="fill: none; stroke: #000000; stroke-width: 0.8; stroke-linejoin: miter; stroke-linecap: square"/>
   </g>
   <g id="patch_4">
    <path d="M 66.6 280.44 
L 520.2 280.44 
" style="fill: none; stroke: #000000; stroke-width: 0.8; stroke-linejoin: miter; stroke-linecap: square"/>
   </g>
   <g id="line2d_21">
    <path d="M 87.218182 199.095 
L 224.672727 181.44 
L 499.581818 184.74 
" clip-path="url(#p00fcfe9a6d)" style="fill: none; stroke: #94a3b8; stroke-width: 2.5; stroke-linecap: square"/>
    <defs>
     <path id="m73c7cff792" d="M 0 3.5 
C 0.928211 3.5 1.81853 3.131218 2.474874 2.474874 
C 3.131218 1.81853 3.5 0.928211 3.5 0 
C 3.5 -0.928211 3.131218 -1.81853 2.474874 -2.474874 
C 1.81853 -3.131218 0.928211 -3.5 0 -3.5 
C -0.928211 -3.5 -1.81853 -3.131218 -2.474874 -2.474874 
C -3.131218 -1.81853 -3.5 -0.928211 -3.5 0 
C -3.5 0.928211 -3.131218 1.81853 -2.474874 2.474874 
C -1.81853 3.131218 -0.928211 3.5 0 3.5 
z
" style="stroke: #94a3b8"/>
    </defs>
    <g clip-path="url(#p00fcfe9a6d)">
     <use xlink:href="#m73c7cff792" x="87.218182" y="199.095" style="fill: #94a3b8; stroke: #94a3b8"/>
     <use xlink:href="#m73c7cff792" x="224.672727" y="181.44" style="fill: #94a3b8; stroke: #94a3b8"/>
     <use xlink:href="#m73c7cff792" x="499.581818" y="184.74" style="fill: #94a3b8; stroke: #94a3b8"/>
    </g>
   </g>
   <g id="line2d_22">
    <path d="M 87.218182 137.715 
L 224.672727 144.315 
L 499.581818 142.83 
" clip-path="url(#p00fcfe9a6d)" style="fill: none; stroke: #3b82f6; stroke-width: 2.5; stroke-linecap: square"/>
    <defs>
     <path id="mfe99f833e9" d="M -3.5 3.5 
L 3.5 3.5 
L 3.5 -3.5 
L -3.5 -3.5 
z
" style="stroke: #3b82f6; stroke-linejoin: miter"/>
    </defs>
    <g clip-path="url(#p00fcfe9a6d)">
     <use xlink:href="#mfe99f833e9" x="87.218182" y="137.715" style="fill: #3b82f6; stroke: #3b82f6; stroke-linejoin: miter"/>
     <use xlink:href="#mfe99f833e9" x="224.672727" y="144.315" style="fill: #3b82f6; stroke: #3b82f6; stroke-linejoin: miter"/>
     <use xlink:href="#mfe99f833e9" x="499.581818" y="142.83" style="fill: #3b82f6; stroke: #3b82f6; stroke-linejoin: miter"/>
    </g>
   </g>
   <g id="line2d_23">
    <path d="M 87.218182 197.775 
L 224.672727 172.53 
L 499.581818 161.145 
" clip-path="url(#p00fcfe9a6d)" style="fill: none; stroke: #f59e0b; stroke-width: 2.5; stroke-linecap: square"/>
    <defs>
     <path id="m93c6ffa0b7" d="M 0 -3.5 
L -3.5 3.5 
L 3.5 3.5 
z
" style="stroke: #f59e0b; stroke-linejoin: miter"/>
    </defs>
    <g clip-path="url(#p00fcfe9a6d)">
     <use xlink:href="#m93c6ffa0b7" x="87.218182" y="197.775" style="fill: #f59e0b; stroke: #f59e0b; stroke-linejoin: miter"/>
     <use xlink:href="#m93c6ffa0b7" x="224.672727" y="172.53" style="fill: #f59e0b; stroke: #f59e0b; stroke-linejoin: miter"/>
     <use xlink:href="#m93c6ffa0b7" x="499.581818" y="161.145" style="fill: #f59e0b; stroke: #f59e0b; stroke-linejoin: miter"/>
    </g>
   </g>
   <g id="patch_5">
    <path d="M 267.922657 173.229906 
Q 247.296844 172.896122 227.677129 172.57862 
" style="fill: none; stroke: #374151; stroke-width: 0.9; stroke-linecap: round"/>
    <path d="M 231.049177 174.333412 
L 227.677129 172.57862 
L 231.104191 170.933857 
" style="fill: none; stroke: #374151; stroke-width: 0.9; stroke-linecap: round"/>
   </g>
   <g id="text_13">
    <!-- Minimal throughput gain -->
    <g style="fill: #374151" transform="translate(271.922727 171.921859) scale(0.085 -0.085)">
     <defs>
      <path id="DejaVuSans-4d" d="M 628 4666 
L 1569 4666 
L 2759 1491 
L 3956 4666 
L 4897 4666 
L 4897 0 
L 4281 0 
L 4281 4097 
L 3078 897 
L 2444 897 
L 1241 4097 
L 1241 0 
L 628 0 
L 628 4666 
z
" transform="scale(0.015625)"/>
      <path id="DejaVuSans-69" d="M 603 3500 
L 1178 3500 
L 1178 0 
L 603 0 
L 603 3500 
z
M 603 4863 
L 1178 4863 
L 1178 4134 
L 603 4134 
L 603 4863 
z
" transform="scale(0.015625)"/>
      <path id="DejaVuSans-6d" d="M 3328 2828 
Q 3544 3216 3844 3400 
Q 4144 3584 4550 3584 
Q 5097 3584 5394 3201 
Q 5691 2819 5691 2113 
L 5691 0 
L 5113 0 
L 5113 2094 
Q 5113 2597 4934 2840 
Q 4756 3084 4391 3084 
Q 3944 3084 3684 2787 
Q 3425 2491 3425 1978 
L 3425 0 
L 2847 0 
L 2847 2094 
Q 2847 2600 2669 2842 
Q 2491 3084 2119 3084 
Q 1678 3084 1418 2786 
Q 1159 2488 1159 1978 
L 1159 0 
L 581 0 
L 581 3500 
L 1159 3500 
L 1159 2956 
Q 1356 3278 1631 3431 
Q 1906 3584 2284 3584 
Q 2666 3584 2933 3390 
Q 3200 3197 3328 2828 
z
" transform="scale(0.015625)"/>
      <path id="DejaVuSans-61" d="M 2194 1759 
Q 1497 1759 1228 1600 
Q 959 1441 959 1056 
Q 959 750 1161 570 
Q 1363 391 1709 391 
Q 2188 391 2477 730 
Q 2766 1069 2766 1631 
L 2766 1759 
L 2194 1759 
z
M 3341 1997 
L 3341 0 
L 2766 0 
L 2766 531 
Q 2569 213 2275 61 
Q 1981 -91 1556 -91 
Q 1019 -91 701 211 
Q 384 513 384 1019 
Q 384 1609 779 1909 
Q 1175 2209 1959 2209 
L 2766 2209 
L 2766 2266 
Q 2766 2663 2505 2880 
Q 2244 3097 1772 3097 
Q 1472 3097 1187 3025 
Q 903 2953 641 2809 
L 641 3341 
Q 956 3463 1253 3523 
Q 1550 3584 1831 3584 
Q 2591 3584 2966 3190 
Q 3341 2797 3341 1997 
z
" transform="scale(0.015625)"/>
      <path id="DejaVuSans-68" d="M 3513 2113 
L 3513 0 
L 2938 0 
L 2938 2094 
Q 2938 2591 2744 2837 
Q 2550 3084 2163 3084 
Q 1697 3084 1428 2787 
Q 1159 2491 1159 1978 
L 1159 0 
L 581 0 
L 581 4863 
L 1159 4863 
L 1159 2956 
Q 1366 3272 1645 3428 
Q 1925 3584 2291 3584 
Q 2894 3584 3203 3211 
Q 3513 2838 3513 2113 
z
" transform="scale(0.015625)"/>
      <path id="DejaVuSans-67" d="M 2906 1791 
Q 2906 2416 2648 2759 
Q 2391 3103 1925 3103 
Q 1463 3103 1205 2759 
Q 947 2416 947 1791 
Q 947 1169 1205 825 
Q 1463 481 1925 481 
Q 2391 481 2648 825 
Q 2906 1169 2906 1791 
z
M 3481 434 
Q 3481 -459 3084 -895 
Q 2688 -1331 1869 -1331 
Q 1566 -1331 1297 -1286 
Q 1028 -1241 775 -1147 
L 775 -588 
Q 1028 -725 1275 -790 
Q 1522 -856 1778 -856 
Q 2344 -856 2625 -561 
Q 2906 -266 2906 331 
L 2906 616 
Q 2728 306 2450 153 
Q 2172 0 1784 0 
Q 1141 0 747 490 
Q 353 981 353 1791 
Q 353 2603 747 3093 
Q 1141 3584 1784 3584 
Q 2172 3584 2450 3431 
Q 2728 3278 2906 2969 
L 2906 3500 
L 3481 3500 
L 3481 434 
z
" transform="scale(0.015625)"/>
     </defs>
     <use xlink:href="#DejaVuSans-4d"/>
     <use xlink:href="#DejaVuSans-69" x="86.279297"/>
     <use xlink:href="#DejaVuSans-6e" x="114.0625"/>
     <use xlink:href="#DejaVuSans-69" x="177.441406"/>
     <use xlink:href="#DejaVuSans-6d" x="205.224609"/>
     <use xlink:href="#DejaVuSans-61" x="302.636719"/>
     <use xlink:href="#DejaVuSans-6c" x="363.916016"/>
     <use xlink:href="#DejaVuSans-20" x="391.699219"/>
     <use xlink:href="#DejaVuSans-74" x="423.486328"/>
     <use xlink:href="#DejaVuSans-68" x="462.695312"/>
     <use xlink:href="#DejaVuSans-72" x="526.074219"/>
     <use xlink:href="#DejaVuSans-6f" x="564.9375"/>
     <use xlink:href="#DejaVuSans-75" x="626.119141"/>
     <use xlink:href="#DejaVuSans-67" x="689.498047"/>
     <use xlink:href="#DejaVuSans-68" x="752.974609"/>
     <use xlink:href="#DejaVuSans-70" x="816.353516"/>
     <use xlink:href="#DejaVuSans-75" x="879.830078"/>
     <use xlink:href="#DejaVuSans-74" x="943.208984"/>
     <use xlink:href="#DejaVuSans-20" x="982.417969"/>
     <use xlink:href="#DejaVuSans-67" x="1014.205078"/>
     <use xlink:href="#DejaVuSans-61" x="1077.681641"/>
     <use xlink:href="#DejaVuSans-69" x="1138.960938"/>
     <use xlink:href="#DejaVuSans-6e" x="1166.744141"/>
    </g>
    <!-- vs baseline at all tested levels -->
    <g style="fill: #374151" transform="translate(271.922727 181.44) scale(0.085 -0.085)">
     <defs>
      <path id="DejaVuSans-62" d="M 3116 1747 
Q 3116 2381 2855 2742 
Q 2594 3103 2138 3103 
Q 1681 3103 1420 2742 
Q 1159 2381 1159 1747 
Q 1159 1113 1420 752 
Q 1681 391 2138 391 
Q 2594 391 2855 752 
Q 3116 1113 3116 1747 
z
M 1159 2969 
Q 1341 3281 1617 3432 
Q 1894 3584 2278 3584 
Q 2916 3584 3314 3078 
Q 3713 2572 3713 1747 
Q 3713 922 3314 415 
Q 2916 -91 2278 -91 
Q 1894 -91 1617 61 
Q 1341 213 1159 525 
L 1159 0 
L 581 0 
L 581 4863 
L 1159 4863 
L 1159 2969 
z
" transform="scale(0.015625)"/>
     </defs>
     <use xlink:href="#DejaVuSans-76"/>
     <use xlink:href="#DejaVuSans-73" x="59.179688"/>
     <use xlink:href="#DejaVuSans-20" x="111.279297"/>
     <use xlink:href="#DejaVuSans-62" x="143.066406"/>
     <use xlink:href="#DejaVuSans-61" x="206.542969"/>
     <use xlink:href="#DejaVuSans-73" x="267.822266"/>
     <use xlink:href="#DejaVuSans-65" x="319.921875"/>
     <use xlink:href="#DejaVuSans-6c" x="381.445312"/>
     <use xlink:href="#DejaVuSans-69" x="409.228516"/>
     <use xlink:href="#DejaVuSans-6e" x="437.011719"/>
     <use xlink:href="#DejaVuSans-65" x="500.390625"/>
     <use xlink:href="#DejaVuSans-20" x="561.914062"/>
     <use xlink:href="#DejaVuSans-61" x="593.701172"/>
     <use xlink:href="#DejaVuSans-74" x="654.980469"/>
     <use xlink:href="#DejaVuSans-20" x="694.189453"/>
     <use xlink:href="#DejaVuSans-61" x="725.976562"/>
     <use xlink:href="#DejaVuSans-6c" x="787.255859"/>
     <use xlink:href="#DejaVuSans-6c" x="815.039062"/>
     <use xlink:href="#DejaVuSans-20" x="842.822266"/>
     <use xlink:href="#DejaVuSans-74" x="874.609375"/>
     <use xlink:href="#DejaVuSans-65" x="913.818359"/>
     <use xlink:href="#DejaVuSans-73" x="975.341797"/>
     <use xlink:href="#DejaVuSans-74" x="1027.441406"/>
     <use xlink:href="#DejaVuSans-65" x="1066.650391"/>
     <use xlink:href="#DejaVuSans-64" x="1128.173828"/>
     <use xlink:href="#DejaVuSans-20" x="1191.650391"/>
     <use xlink:href="#DejaVuSans-6c" x="1223.4375"/>
     <use xlink:href="#DejaVuSans-65" x="1251.220703"/>
     <use xlink:href="#DejaVuSans-76" x="1312.744141"/>
     <use xlink:href="#DejaVuSans-65" x="1371.923828"/>
     <use xlink:href="#DejaVuSans-6c" x="1433.447266"/>
     <use xlink:href="#DejaVuSans-73" x="1461.230469"/>
    </g>
   </g>
   <g id="legend_1">
    <g id="line2d_24">
     <path d="M 391.727812 240.897656 
L 400.727812 240.897656 
L 409.727812 240.897656 
" style="fill: none; stroke: #94a3b8; stroke-width: 2.5; stroke-linecap: square"/>
     <g>
      <use xlink:href="#m73c7cff792" x="400.727812" y="240.897656" style="fill: #94a3b8; stroke: #94a3b8"/>
     </g>
    </g>
    <g id="text_14">
     <!-- Baseline -->
     <g transform="translate(416.927812 244.047656) scale(0.09 -0.09)">
      <defs>
       <path id="DejaVuSans-42" d="M 1259 2228 
L 1259 519 
L 2272 519 
Q 2781 519 3026 730 
Q 3272 941 3272 1375 
Q 3272 1813 3026 2020 
Q 2781 2228 2272 2228 
L 1259 2228 
z
M 1259 4147 
L 1259 2741 
L 2194 2741 
Q 2656 2741 2882 2914 
Q 3109 3088 3109 3444 
Q 3109 3797 2882 3972 
Q 2656 4147 2194 4147 
L 1259 4147 
z
M 628 4666 
L 2241 4666 
Q 2963 4666 3353 4366 
Q 3744 4066 3744 3513 
Q 3744 3084 3544 2831 
Q 3344 2578 2956 2516 
Q 3422 2416 3680 2098 
Q 3938 1781 3938 1306 
Q 3938 681 3513 340 
Q 3088 0 2303 0 
L 628 0 
L 628 4666 
z
" transform="scale(0.015625)"/>
      </defs>
      <use xlink:href="#DejaVuSans-42"/>
      <use xlink:href="#DejaVuSans-61" x="68.603516"/>
      <use xlink:href="#DejaVuSans-73" x="129.882812"/>
      <use xlink:href="#DejaVuSans-65" x="181.982422"/>
      <use xlink:href="#DejaVuSans-6c" x="243.505859"/>
      <use xlink:href="#DejaVuSans-69" x="271.289062"/>
      <use xlink:href="#DejaVuSans-6e" x="299.072266"/>
      <use xlink:href="#DejaVuSans-65" x="362.451172"/>
     </g>
    </g>
    <g id="line2d_25">
     <path d="M 391.727812 254.107969 
L 400.727812 254.107969 
L 409.727812 254.107969 
" style="fill: none; stroke: #3b82f6; stroke-width: 2.5; stroke-linecap: square"/>
     <g>
      <use xlink:href="#mfe99f833e9" x="400.727812" y="254.107969" style="fill: #3b82f6; stroke: #3b82f6; stroke-linejoin: miter"/>
     </g>
    </g>
    <g id="text_15">
     <!-- QC Redis (single tier) -->
     <g transform="translate(416.927812 257.257969) scale(0.09 -0.09)">
      <defs>
       <path id="DejaVuSans-51" d="M 2522 4238 
Q 1834 4238 1429 3725 
Q 1025 3213 1025 2328 
Q 1025 1447 1429 934 
Q 1834 422 2522 422 
Q 3209 422 3611 934 
Q 4013 1447 4013 2328 
Q 4013 3213 3611 3725 
Q 3209 4238 2522 4238 
z
M 3406 84 
L 4238 -825 
L 3475 -825 
L 2784 -78 
Q 2681 -84 2626 -87 
Q 2572 -91 2522 -91 
Q 1538 -91 948 567 
Q 359 1225 359 2328 
Q 359 3434 948 4092 
Q 1538 4750 2522 4750 
Q 3503 4750 4090 4092 
Q 4678 3434 4678 2328 
Q 4678 1516 4351 937 
Q 4025 359 3406 84 
z
" transform="scale(0.015625)"/>
      </defs>
      <use xlink:href="#DejaVuSans-51"/>
      <use xlink:href="#DejaVuSans-43" x="78.710938"/>
      <use xlink:href="#DejaVuSans-20" x="148.535156"/>
      <use xlink:href="#DejaVuSans-52" x="180.322266"/>
      <use xlink:href="#DejaVuSans-65" x="245.304688"/>
      <use xlink:href="#DejaVuSans-64" x="306.828125"/>
      <use xlink:href="#DejaVuSans-69" x="370.304688"/>
      <use xlink:href="#DejaVuSans-73" x="398.087891"/>
      <use xlink:href="#DejaVuSans-20" x="450.1875"/>
      <use xlink:href="#DejaVuSans-28" x="481.974609"/>
      <use xlink:href="#DejaVuSans-73" x="520.988281"/>
      <use xlink:href="#DejaVuSans-69" x="573.087891"/>
      <use xlink:href="#DejaVuSans-6e" x="600.871094"/>
      <use xlink:href="#DejaVuSans-67" x="664.25"/>
      <use xlink:href="#DejaVuSans-6c" x="727.726562"/>
      <use xlink:href="#DejaVuSans-65" x="755.509766"/>
      <use xlink:href="#DejaVuSans-20" x="817.033203"/>
      <use xlink:href="#DejaVuSans-74" x="848.820312"/>
      <use xlink:href="#DejaVuSans-69" x="888.029297"/>
      <use xlink:href="#DejaVuSans-65" x="915.8125"/>
      <use xlink:href="#DejaVuSans-72" x="977.335938"/>
      <use xlink:href="#DejaVuSans-29" x="1018.449219"/>
     </g>
    </g>
    <g id="line2d_26">
     <path d="M 391.727812 267.318281 
L 400.727812 267.318281 
L 409.727812 267.318281 
" style="fill: none; stroke: #f59e0b; stroke-width: 2.5; stroke-linecap: square"/>
     <g>
      <use xlink:href="#m93c6ffa0b7" x="400.727812" y="267.318281" style="fill: #f59e0b; stroke: #f59e0b; stroke-linejoin: miter"/>
     </g>
    </g>
    <g id="text_16">
     <!-- QC MySQL fallback -->
     <g transform="translate(416.927812 270.468281) scale(0.09 -0.09)">
      <defs>
       <path id="DejaVuSans-4c" d="M 628 4666 
L 1259 4666 
L 1259 531 
L 3531 531 
L 3531 0 
L 628 0 
L 628 4666 
z
" transform="scale(0.015625)"/>
       <path id="DejaVuSans-66" d="M 2375 4863 
L 2375 4384 
L 1825 4384 
Q 1516 4384 1395 4259 
Q 1275 4134 1275 3809 
L 1275 3500 
L 2222 3500 
L 2222 3053 
L 1275 3053 
L 1275 0 
L 697 0 
L 697 3053 
L 147 3053 
L 147 3500 
L 697 3500 
L 697 3744 
Q 697 4328 969 4595 
Q 1241 4863 1831 4863 
L 2375 4863 
z
" transform="scale(0.015625)"/>
       <path id="DejaVuSans-6b" d="M 581 4863 
L 1159 4863 
L 1159 1991 
L 2875 3500 
L 3609 3500 
L 1753 1863 
L 3688 0 
L 2938 0 
L 1159 1709 
L 1159 0 
L 581 0 
L 581 4863 
z
" transform="scale(0.015625)"/>
      </defs>
      <use xlink:href="#DejaVuSans-51"/>
      <use xlink:href="#DejaVuSans-43" x="78.710938"/>
      <use xlink:href="#DejaVuSans-20" x="148.535156"/>
      <use xlink:href="#DejaVuSans-4d" x="180.322266"/>
      <use xlink:href="#DejaVuSans-79" x="266.601562"/>
      <use xlink:href="#DejaVuSans-53" x="325.78125"/>
      <use xlink:href="#DejaVuSans-51" x="389.257812"/>
      <use xlink:href="#DejaVuSans-4c" x="467.96875"/>
      <use xlink:href="#DejaVuSans-20" x="523.681641"/>
      <use xlink:href="#DejaVuSans-66" x="555.46875"/>
      <use xlink:href="#DejaVuSans-61" x="590.673828"/>
      <use xlink:href="#DejaVuSans-6c" x="651.953125"/>
      <use xlink:href="#DejaVuSans-6c" x="679.736328"/>
      <use xlink:href="#DejaVuSans-62" x="707.519531"/>
      <use xlink:href="#DejaVuSans-61" x="770.996094"/>
      <use xlink:href="#DejaVuSans-63" x="832.275391"/>
      <use xlink:href="#DejaVuSans-6b" x="887.255859"/>
     </g>
    </g>
   </g>
  </g>
  <g id="text_17">
   <!-- Standard Pages — Throughput vs Concurrency, Extended Sweep -->
   <g transform="translate(48.94875 16.318125) scale(0.12 -0.12)">
    <defs>
     <path id="DejaVuSans-Bold-53" d="M 3834 4519 
L 3834 3531 
Q 3450 3703 3084 3790 
Q 2719 3878 2394 3878 
Q 1963 3878 1756 3759 
Q 1550 3641 1550 3391 
Q 1550 3203 1689 3098 
Q 1828 2994 2194 2919 
L 2706 2816 
Q 3484 2659 3812 2340 
Q 4141 2022 4141 1434 
Q 4141 663 3683 286 
Q 3225 -91 2284 -91 
Q 1841 -91 1394 -6 
Q 947 78 500 244 
L 500 1259 
Q 947 1022 1364 901 
Q 1781 781 2169 781 
Q 2563 781 2772 912 
Q 2981 1044 2981 1288 
Q 2981 1506 2839 1625 
Q 2697 1744 2272 1838 
L 1806 1941 
Q 1106 2091 782 2419 
Q 459 2747 459 3303 
Q 459 4000 909 4375 
Q 1359 4750 2203 4750 
Q 2588 4750 2994 4692 
Q 3400 4634 3834 4519 
z
" transform="scale(0.015625)"/>
     <path id="DejaVuSans-Bold-74" d="M 1759 4494 
L 1759 3500 
L 2913 3500 
L 2913 2700 
L 1759 2700 
L 1759 1216 
Q 1759 972 1856 886 
Q 1953 800 2241 800 
L 2816 800 
L 2816 0 
L 1856 0 
Q 1194 0 917 276 
Q 641 553 641 1216 
L 641 2700 
L 84 2700 
L 84 3500 
L 641 3500 
L 641 4494 
L 1759 4494 
z
" transform="scale(0.015625)"/>
     <path id="DejaVuSans-Bold-61" d="M 2106 1575 
Q 1756 1575 1579 1456 
Q 1403 1338 1403 1106 
Q 1403 894 1545 773 
Q 1688 653 1941 653 
Q 2256 653 2472 879 
Q 2688 1106 2688 1447 
L 2688 1575 
L 2106 1575 
z
M 3816 1997 
L 3816 0 
L 2688 0 
L 2688 519 
Q 2463 200 2181 54 
Q 1900 -91 1497 -91 
Q 953 -91 614 226 
Q 275 544 275 1050 
Q 275 1666 698 1953 
Q 1122 2241 2028 2241 
L 2688 2241 
L 2688 2328 
Q 2688 2594 2478 2717 
Q 2269 2841 1825 2841 
Q 1466 2841 1156 2769 
Q 847 2697 581 2553 
L 581 3406 
Q 941 3494 1303 3539 
Q 1666 3584 2028 3584 
Q 2975 3584 3395 3211 
Q 3816 2838 3816 1997 
z
" transform="scale(0.015625)"/>
     <path id="DejaVuSans-Bold-6e" d="M 4056 2131 
L 4056 0 
L 2931 0 
L 2931 347 
L 2931 1631 
Q 2931 2084 2911 2256 
Q 2891 2428 2841 2509 
Q 2775 2619 2662 2680 
Q 2550 2741 2406 2741 
Q 2056 2741 1856 2470 
Q 1656 2200 1656 1722 
L 1656 0 
L 538 0 
L 538 3500 
L 1656 3500 
L 1656 2988 
Q 1909 3294 2193 3439 
Q 2478 3584 2822 3584 
Q 3428 3584 3742 3212 
Q 4056 2841 4056 2131 
z
" transform="scale(0.015625)"/>
     <path id="DejaVuSans-Bold-64" d="M 2919 2988 
L 2919 4863 
L 4044 4863 
L 4044 0 
L 2919 0 
L 2919 506 
Q 2688 197 2409 53 
Q 2131 -91 1766 -91 
Q 1119 -91 703 423 
Q 288 938 288 1747 
Q 288 2556 703 3070 
Q 1119 3584 1766 3584 
Q 2128 3584 2408 3439 
Q 2688 3294 2919 2988 
z
M 2181 722 
Q 2541 722 2730 984 
Q 2919 1247 2919 1747 
Q 2919 2247 2730 2509 
Q 2541 2772 2181 2772 
Q 1825 2772 1636 2509 
Q 1447 2247 1447 1747 
Q 1447 1247 1636 984 
Q 1825 722 2181 722 
z
" transform="scale(0.015625)"/>
     <path id="DejaVuSans-Bold-72" d="M 3138 2547 
Q 2991 2616 2845 2648 
Q 2700 2681 2553 2681 
Q 2122 2681 1889 2404 
Q 1656 2128 1656 1613 
L 1656 0 
L 538 0 
L 538 3500 
L 1656 3500 
L 1656 2925 
Q 1872 3269 2151 3426 
Q 2431 3584 2822 3584 
Q 2878 3584 2943 3579 
Q 3009 3575 3134 3559 
L 3138 2547 
z
" transform="scale(0.015625)"/>
     <path id="DejaVuSans-Bold-20" transform="scale(0.015625)"/>
     <path id="DejaVuSans-Bold-50" d="M 588 4666 
L 2584 4666 
Q 3475 4666 3951 4270 
Q 4428 3875 4428 3144 
Q 4428 2409 3951 2014 
Q 3475 1619 2584 1619 
L 1791 1619 
L 1791 0 
L 588 0 
L 588 4666 
z
M 1791 3794 
L 1791 2491 
L 2456 2491 
Q 2806 2491 2997 2661 
Q 3188 2831 3188 3144 
Q 3188 3456 2997 3625 
Q 2806 3794 2456 3794 
L 1791 3794 
z
" transform="scale(0.015625)"/>
     <path id="DejaVuSans-Bold-67" d="M 2919 594 
Q 2688 288 2409 144 
Q 2131 0 1766 0 
Q 1125 0 706 504 
Q 288 1009 288 1791 
Q 288 2575 706 3076 
Q 1125 3578 1766 3578 
Q 2131 3578 2409 3434 
Q 2688 3291 2919 2981 
L 2919 3500 
L 4044 3500 
L 4044 353 
Q 4044 -491 3511 -936 
Q 2978 -1381 1966 -1381 
Q 1638 -1381 1331 -1331 
Q 1025 -1281 716 -1178 
L 716 -306 
Q 1009 -475 1290 -558 
Q 1572 -641 1856 -641 
Q 2406 -641 2662 -400 
Q 2919 -159 2919 353 
L 2919 594 
z
M 2181 2772 
Q 1834 2772 1640 2515 
Q 1447 2259 1447 1791 
Q 1447 1309 1634 1061 
Q 1822 813 2181 813 
Q 2531 813 2725 1069 
Q 2919 1325 2919 1791 
Q 2919 2259 2725 2515 
Q 2531 2772 2181 2772 
z
" transform="scale(0.015625)"/>
     <path id="DejaVuSans-Bold-65" d="M 4031 1759 
L 4031 1441 
L 1416 1441 
Q 1456 1047 1700 850 
Q 1944 653 2381 653 
Q 2734 653 3104 758 
Q 3475 863 3866 1075 
L 3866 213 
Q 3469 63 3072 -14 
Q 2675 -91 2278 -91 
Q 1328 -91 801 392 
Q 275 875 275 1747 
Q 275 2603 792 3093 
Q 1309 3584 2216 3584 
Q 3041 3584 3536 3087 
Q 4031 2591 4031 1759 
z
M 2881 2131 
Q 2881 2450 2695 2645 
Q 2509 2841 2209 2841 
Q 1884 2841 1681 2658 
Q 1478 2475 1428 2131 
L 2881 2131 
z
" transform="scale(0.015625)"/>
     <path id="DejaVuSans-Bold-73" d="M 3272 3391 
L 3272 2541 
Q 2913 2691 2578 2766 
Q 2244 2841 1947 2841 
Q 1628 2841 1473 2761 
Q 1319 2681 1319 2516 
Q 1319 2381 1436 2309 
Q 1553 2238 1856 2203 
L 2053 2175 
Q 2913 2066 3209 1816 
Q 3506 1566 3506 1031 
Q 3506 472 3093 190 
Q 2681 -91 1863 -91 
Q 1516 -91 1145 -36 
Q 775 19 384 128 
L 384 978 
Q 719 816 1070 734 
Q 1422 653 1784 653 
Q 2113 653 2278 743 
Q 2444 834 2444 1013 
Q 2444 1163 2330 1236 
Q 2216 1309 1875 1350 
L 1678 1375 
Q 931 1469 631 1722 
Q 331 1975 331 2491 
Q 331 3047 712 3315 
Q 1094 3584 1881 3584 
Q 2191 3584 2531 3537 
Q 2872 3491 3272 3391 
z
" transform="scale(0.015625)"/>
     <path id="DejaVuSans-Bold-2014" d="M 344 2156 
L 6056 2156 
L 6056 1350 
L 344 1350 
L 344 2156 
z
" transform="scale(0.015625)"/>
     <path id="DejaVuSans-Bold-54" d="M 31 4666 
L 4331 4666 
L 4331 3756 
L 2784 3756 
L 2784 0 
L 1581 0 
L 1581 3756 
L 31 3756 
L 31 4666 
z
" transform="scale(0.015625)"/>
     <path id="DejaVuSans-Bold-68" d="M 4056 2131 
L 4056 0 
L 2931 0 
L 2931 347 
L 2931 1625 
Q 2931 2084 2911 2256 
Q 2891 2428 2841 2509 
Q 2775 2619 2662 2680 
Q 2550 2741 2406 2741 
Q 2056 2741 1856 2470 
Q 1656 2200 1656 1722 
L 1656 0 
L 538 0 
L 538 4863 
L 1656 4863 
L 1656 2988 
Q 1909 3294 2193 3439 
Q 2478 3584 2822 3584 
Q 3428 3584 3742 3212 
Q 4056 2841 4056 2131 
z
" transform="scale(0.015625)"/>
     <path id="DejaVuSans-Bold-6f" d="M 2203 2784 
Q 1831 2784 1636 2517 
Q 1441 2250 1441 1747 
Q 1441 1244 1636 976 
Q 1831 709 2203 709 
Q 2569 709 2762 976 
Q 2956 1244 2956 1747 
Q 2956 2250 2762 2517 
Q 2569 2784 2203 2784 
z
M 2203 3584 
Q 3106 3584 3614 3096 
Q 4122 2609 4122 1747 
Q 4122 884 3614 396 
Q 3106 -91 2203 -91 
Q 1297 -91 786 396 
Q 275 884 275 1747 
Q 275 2609 786 3096 
Q 1297 3584 2203 3584 
z
" transform="scale(0.015625)"/>
     <path id="DejaVuSans-Bold-75" d="M 500 1363 
L 500 3500 
L 1625 3500 
L 1625 3150 
Q 1625 2866 1622 2436 
Q 1619 2006 1619 1863 
Q 1619 1441 1641 1255 
Q 1663 1069 1716 984 
Q 1784 875 1895 815 
Q 2006 756 2150 756 
Q 2500 756 2700 1025 
Q 2900 1294 2900 1772 
L 2900 3500 
L 4019 3500 
L 4019 0 
L 2900 0 
L 2900 506 
Q 2647 200 2364 54 
Q 2081 -91 1741 -91 
Q 1134 -91 817 281 
Q 500 653 500 1363 
z
" transform="scale(0.015625)"/>
     <path id="DejaVuSans-Bold-70" d="M 1656 506 
L 1656 -1331 
L 538 -1331 
L 538 3500 
L 1656 3500 
L 1656 2988 
Q 1888 3294 2169 3439 
Q 2450 3584 2816 3584 
Q 3463 3584 3878 3070 
Q 4294 2556 4294 1747 
Q 4294 938 3878 423 
Q 3463 -91 2816 -91 
Q 2450 -91 2169 54 
Q 1888 200 1656 506 
z
M 2400 2772 
Q 2041 2772 1848 2508 
Q 1656 2244 1656 1747 
Q 1656 1250 1848 986 
Q 2041 722 2400 722 
Q 2759 722 2948 984 
Q 3138 1247 3138 1747 
Q 3138 2247 2948 2509 
Q 2759 2772 2400 2772 
z
" transform="scale(0.015625)"/>
     <path id="DejaVuSans-Bold-76" d="M 97 3500 
L 1216 3500 
L 2088 1081 
L 2956 3500 
L 4078 3500 
L 2700 0 
L 1472 0 
L 97 3500 
z
" transform="scale(0.015625)"/>
     <path id="DejaVuSans-Bold-43" d="M 4288 256 
Q 3956 84 3597 -3 
Q 3238 -91 2847 -91 
Q 1681 -91 1000 561 
Q 319 1213 319 2328 
Q 319 3447 1000 4098 
Q 1681 4750 2847 4750 
Q 3238 4750 3597 4662 
Q 3956 4575 4288 4403 
L 4288 3438 
Q 3953 3666 3628 3772 
Q 3303 3878 2944 3878 
Q 2300 3878 1931 3465 
Q 1563 3053 1563 2328 
Q 1563 1606 1931 1193 
Q 2300 781 2944 781 
Q 3303 781 3628 887 
Q 3953 994 4288 1222 
L 4288 256 
z
" transform="scale(0.015625)"/>
     <path id="DejaVuSans-Bold-63" d="M 3366 3391 
L 3366 2478 
Q 3138 2634 2908 2709 
Q 2678 2784 2431 2784 
Q 1963 2784 1702 2511 
Q 1441 2238 1441 1747 
Q 1441 1256 1702 982 
Q 1963 709 2431 709 
Q 2694 709 2930 787 
Q 3166 866 3366 1019 
L 3366 103 
Q 3103 6 2833 -42 
Q 2563 -91 2291 -91 
Q 1344 -91 809 395 
Q 275 881 275 1747 
Q 275 2613 809 3098 
Q 1344 3584 2291 3584 
Q 2566 3584 2833 3536 
Q 3100 3488 3366 3391 
z
" transform="scale(0.015625)"/>
     <path id="DejaVuSans-Bold-79" d="M 78 3500 
L 1197 3500 
L 2138 1125 
L 2938 3500 
L 4056 3500 
L 2584 -331 
Q 2363 -916 2067 -1148 
Q 1772 -1381 1288 -1381 
L 641 -1381 
L 641 -647 
L 991 -647 
Q 1275 -647 1404 -556 
Q 1534 -466 1606 -231 
L 1638 -134 
L 78 3500 
z
" transform="scale(0.015625)"/>
     <path id="DejaVuSans-Bold-2c" d="M 653 1209 
L 1778 1209 
L 1778 256 
L 1006 -909 
L 341 -909 
L 653 256 
L 653 1209 
z
" transform="scale(0.015625)"/>
     <path id="DejaVuSans-Bold-45" d="M 588 4666 
L 3834 4666 
L 3834 3756 
L 1791 3756 
L 1791 2888 
L 3713 2888 
L 3713 1978 
L 1791 1978 
L 1791 909 
L 3903 909 
L 3903 0 
L 588 0 
L 588 4666 
z
" transform="scale(0.015625)"/>
     <path id="DejaVuSans-Bold-78" d="M 1422 1791 
L 159 3500 
L 1344 3500 
L 2059 2463 
L 2784 3500 
L 3969 3500 
L 2706 1797 
L 4031 0 
L 2847 0 
L 2059 1106 
L 1281 0 
L 97 0 
L 1422 1791 
z
" transform="scale(0.015625)"/>
     <path id="DejaVuSans-Bold-77" d="M 225 3500 
L 1313 3500 
L 1900 1088 
L 2491 3500 
L 3425 3500 
L 4013 1113 
L 4603 3500 
L 5691 3500 
L 4769 0 
L 3547 0 
L 2956 2406 
L 2369 0 
L 1147 0 
L 225 3500 
z
" transform="scale(0.015625)"/>
    </defs>
    <use xlink:href="#DejaVuSans-Bold-53"/>
    <use xlink:href="#DejaVuSans-Bold-74" x="72.021484"/>
    <use xlink:href="#DejaVuSans-Bold-61" x="119.824219"/>
    <use xlink:href="#DejaVuSans-Bold-6e" x="187.304688"/>
    <use xlink:href="#DejaVuSans-Bold-64" x="258.496094"/>
    <use xlink:href="#DejaVuSans-Bold-61" x="330.078125"/>
    <use xlink:href="#DejaVuSans-Bold-72" x="397.558594"/>
    <use xlink:href="#DejaVuSans-Bold-64" x="446.875"/>
    <use xlink:href="#DejaVuSans-Bold-20" x="518.457031"/>
    <use xlink:href="#DejaVuSans-Bold-50" x="553.271484"/>
    <use xlink:href="#DejaVuSans-Bold-61" x="623.9375"/>
    <use xlink:href="#DejaVuSans-Bold-67" x="691.417969"/>
    <use xlink:href="#DejaVuSans-Bold-65" x="763"/>
    <use xlink:href="#DejaVuSans-Bold-73" x="830.822266"/>
    <use xlink:href="#DejaVuSans-Bold-20" x="890.34375"/>
    <use xlink:href="#DejaVuSans-Bold-2014" x="925.158203"/>
    <use xlink:href="#DejaVuSans-Bold-20" x="1025.158203"/>
    <use xlink:href="#DejaVuSans-Bold-54" x="1059.972656"/>
    <use xlink:href="#DejaVuSans-Bold-68" x="1128.185547"/>
    <use xlink:href="#DejaVuSans-Bold-72" x="1199.376953"/>
    <use xlink:href="#DejaVuSans-Bold-6f" x="1248.693359"/>
    <use xlink:href="#DejaVuSans-Bold-75" x="1317.394531"/>
    <use xlink:href="#DejaVuSans-Bold-67" x="1388.585938"/>
    <use xlink:href="#DejaVuSans-Bold-68" x="1460.167969"/>
    <use xlink:href="#DejaVuSans-Bold-70" x="1531.359375"/>
    <use xlink:href="#DejaVuSans-Bold-75" x="1602.941406"/>
    <use xlink:href="#DejaVuSans-Bold-74" x="1674.132812"/>
    <use xlink:href="#DejaVuSans-Bold-20" x="1721.935547"/>
    <use xlink:href="#DejaVuSans-Bold-76" x="1756.75"/>
    <use xlink:href="#DejaVuSans-Bold-73" x="1821.935547"/>
    <use xlink:href="#DejaVuSans-Bold-20" x="1881.457031"/>
    <use xlink:href="#DejaVuSans-Bold-43" x="1916.271484"/>
    <use xlink:href="#DejaVuSans-Bold-6f" x="1989.660156"/>
    <use xlink:href="#DejaVuSans-Bold-6e" x="2058.361328"/>
    <use xlink:href="#DejaVuSans-Bold-63" x="2129.552734"/>
    <use xlink:href="#DejaVuSans-Bold-75" x="2188.830078"/>
    <use xlink:href="#DejaVuSans-Bold-72" x="2260.021484"/>
    <use xlink:href="#DejaVuSans-Bold-72" x="2309.337891"/>
    <use xlink:href="#DejaVuSans-Bold-65" x="2358.654297"/>
    <use xlink:href="#DejaVuSans-Bold-6e" x="2426.476562"/>
    <use xlink:href="#DejaVuSans-Bold-63" x="2497.667969"/>
    <use xlink:href="#DejaVuSans-Bold-79" x="2556.945312"/>
    <use xlink:href="#DejaVuSans-Bold-2c" x="2614.380859"/>
    <use xlink:href="#DejaVuSans-Bold-20" x="2652.369141"/>
    <use xlink:href="#DejaVuSans-Bold-45" x="2687.183594"/>
    <use xlink:href="#DejaVuSans-Bold-78" x="2755.494141"/>
    <use xlink:href="#DejaVuSans-Bold-74" x="2819.996094"/>
    <use xlink:href="#DejaVuSans-Bold-65" x="2867.798828"/>
    <use xlink:href="#DejaVuSans-Bold-6e" x="2935.621094"/>
    <use xlink:href="#DejaVuSans-Bold-64" x="3006.8125"/>
    <use xlink:href="#DejaVuSans-Bold-65" x="3078.394531"/>
    <use xlink:href="#DejaVuSans-Bold-64" x="3146.216797"/>
    <use xlink:href="#DejaVuSans-Bold-20" x="3217.798828"/>
    <use xlink:href="#DejaVuSans-Bold-53" x="3252.613281"/>
    <use xlink:href="#DejaVuSans-Bold-77" x="3324.634766"/>
    <use xlink:href="#DejaVuSans-Bold-65" x="3417.017578"/>
    <use xlink:href="#DejaVuSans-Bold-65" x="3484.839844"/>
    <use xlink:href="#DejaVuSans-Bold-70" x="3552.662109"/>
   </g>
   <!-- (Redis vs MySQL Fallback) -->
   <g transform="translate(177.628125 29.84925) scale(0.12 -0.12)">
    <defs>
     <path id="DejaVuSans-Bold-28" d="M 2413 -844 
L 1484 -844 
Q 1006 -72 778 623 
Q 550 1319 550 2003 
Q 550 2688 779 3389 
Q 1009 4091 1484 4856 
L 2413 4856 
Q 2013 4116 1813 3408 
Q 1613 2700 1613 2009 
Q 1613 1319 1811 609 
Q 2009 -100 2413 -844 
z
" transform="scale(0.015625)"/>
     <path id="DejaVuSans-Bold-52" d="M 2297 2597 
Q 2675 2597 2839 2737 
Q 3003 2878 3003 3200 
Q 3003 3519 2839 3656 
Q 2675 3794 2297 3794 
L 1791 3794 
L 1791 2597 
L 2297 2597 
z
M 1791 1766 
L 1791 0 
L 588 0 
L 588 4666 
L 2425 4666 
Q 3347 4666 3776 4356 
Q 4206 4047 4206 3378 
Q 4206 2916 3982 2619 
Q 3759 2322 3309 2181 
Q 3556 2125 3751 1926 
Q 3947 1728 4147 1325 
L 4800 0 
L 3519 0 
L 2950 1159 
Q 2778 1509 2601 1637 
Q 2425 1766 2131 1766 
L 1791 1766 
z
" transform="scale(0.015625)"/>
     <path id="DejaVuSans-Bold-69" d="M 538 3500 
L 1656 3500 
L 1656 0 
L 538 0 
L 538 3500 
z
M 538 4863 
L 1656 4863 
L 1656 3950 
L 538 3950 
L 538 4863 
z
" transform="scale(0.015625)"/>
     <path id="DejaVuSans-Bold-4d" d="M 588 4666 
L 2119 4666 
L 3181 2169 
L 4250 4666 
L 5778 4666 
L 5778 0 
L 4641 0 
L 4641 3413 
L 3566 897 
L 2803 897 
L 1728 3413 
L 1728 0 
L 588 0 
L 588 4666 
z
" transform="scale(0.015625)"/>
     <path id="DejaVuSans-Bold-51" d="M 2847 -84 
L 2753 -84 
Q 1600 -84 959 553 
Q 319 1191 319 2328 
Q 319 3463 958 4106 
Q 1597 4750 2719 4750 
Q 3853 4750 4486 4112 
Q 5119 3475 5119 2328 
Q 5119 1541 4783 972 
Q 4447 403 3816 116 
L 4756 -934 
L 3609 -934 
L 2847 -84 
z
M 2719 3878 
Q 2169 3878 1866 3472 
Q 1563 3066 1563 2328 
Q 1563 1578 1859 1179 
Q 2156 781 2719 781 
Q 3272 781 3575 1187 
Q 3878 1594 3878 2328 
Q 3878 3066 3575 3472 
Q 3272 3878 2719 3878 
z
" transform="scale(0.015625)"/>
     <path id="DejaVuSans-Bold-4c" d="M 588 4666 
L 1791 4666 
L 1791 909 
L 3903 909 
L 3903 0 
L 588 0 
L 588 4666 
z
" transform="scale(0.015625)"/>
     <path id="DejaVuSans-Bold-46" d="M 588 4666 
L 3834 4666 
L 3834 3756 
L 1791 3756 
L 1791 2888 
L 3713 2888 
L 3713 1978 
L 1791 1978 
L 1791 0 
L 588 0 
L 588 4666 
z
" transform="scale(0.015625)"/>
     <path id="DejaVuSans-Bold-6c" d="M 538 4863 
L 1656 4863 
L 1656 0 
L 538 0 
L 538 4863 
z
" transform="scale(0.015625)"/>
     <path id="DejaVuSans-Bold-62" d="M 2400 722 
Q 2759 722 2948 984 
Q 3138 1247 3138 1747 
Q 3138 2247 2948 2509 
Q 2759 2772 2400 2772 
Q 2041 2772 1848 2508 
Q 1656 2244 1656 1747 
Q 1656 1250 1848 986 
Q 2041 722 2400 722 
z
M 1656 2988 
Q 1888 3294 2169 3439 
Q 2450 3584 2816 3584 
Q 3463 3584 3878 3070 
Q 4294 2556 4294 1747 
Q 4294 938 3878 423 
Q 3463 -91 2816 -91 
Q 2450 -91 2169 54 
Q 1888 200 1656 506 
L 1656 0 
L 538 0 
L 538 4863 
L 1656 4863 
L 1656 2988 
z
" transform="scale(0.015625)"/>
     <path id="DejaVuSans-Bold-6b" d="M 538 4863 
L 1656 4863 
L 1656 2216 
L 2944 3500 
L 4244 3500 
L 2534 1894 
L 4378 0 
L 3022 0 
L 1656 1459 
L 1656 0 
L 538 0 
L 538 4863 
z
" transform="scale(0.015625)"/>
     <path id="DejaVuSans-Bold-29" d="M 513 -844 
Q 913 -100 1113 609 
Q 1313 1319 1313 2009 
Q 1313 2700 1113 3408 
Q 913 4116 513 4856 
L 1441 4856 
Q 1916 4091 2145 3389 
Q 2375 2688 2375 2003 
Q 2375 1319 2147 623 
Q 1919 -72 1441 -844 
L 513 -844 
z
" transform="scale(0.015625)"/>
    </defs>
    <use xlink:href="#DejaVuSans-Bold-28"/>
    <use xlink:href="#DejaVuSans-Bold-52" x="45.703125"/>
    <use xlink:href="#DejaVuSans-Bold-65" x="122.705078"/>
    <use xlink:href="#DejaVuSans-Bold-64" x="190.527344"/>
    <use xlink:href="#DejaVuSans-Bold-69" x="262.109375"/>
    <use xlink:href="#DejaVuSans-Bold-73" x="296.386719"/>
    <use xlink:href="#DejaVuSans-Bold-20" x="355.908203"/>
    <use xlink:href="#DejaVuSans-Bold-76" x="390.722656"/>
    <use xlink:href="#DejaVuSans-Bold-73" x="455.908203"/>
    <use xlink:href="#DejaVuSans-Bold-20" x="515.429688"/>
    <use xlink:href="#DejaVuSans-Bold-4d" x="550.244141"/>
    <use xlink:href="#DejaVuSans-Bold-79" x="649.755859"/>
    <use xlink:href="#DejaVuSans-Bold-53" x="714.941406"/>
    <use xlink:href="#DejaVuSans-Bold-51" x="786.962891"/>
    <use xlink:href="#DejaVuSans-Bold-4c" x="871.972656"/>
    <use xlink:href="#DejaVuSans-Bold-20" x="935.693359"/>
    <use xlink:href="#DejaVuSans-Bold-46" x="970.507812"/>
    <use xlink:href="#DejaVuSans-Bold-61" x="1032.943359"/>
    <use xlink:href="#DejaVuSans-Bold-6c" x="1100.423828"/>
    <use xlink:href="#DejaVuSans-Bold-6c" x="1134.701172"/>
    <use xlink:href="#DejaVuSans-Bold-62" x="1168.978516"/>
    <use xlink:href="#DejaVuSans-Bold-61" x="1240.560547"/>
    <use xlink:href="#DejaVuSans-Bold-63" x="1308.041016"/>
    <use xlink:href="#DejaVuSans-Bold-6b" x="1367.318359"/>
    <use xlink:href="#DejaVuSans-Bold-29" x="1433.822266"/>
   </g>
  </g>
  <g id="text_18">
   <!-- n=400 per level. Source: full_report run (2026-03-16). Single-tier QC only — no Free/Pro split. -->
   <g style="fill: #6b7280" transform="translate(66.873125 41.378672) scale(0.085 -0.085)">
    <defs>
     <path id="DejaVuSans-Oblique-6e" d="M 3566 2113 
L 3156 0 
L 2578 0 
L 2988 2091 
Q 3016 2238 3031 2350 
Q 3047 2463 3047 2528 
Q 3047 2791 2881 2937 
Q 2716 3084 2419 3084 
Q 1956 3084 1622 2776 
Q 1288 2469 1184 1941 
L 800 0 
L 225 0 
L 903 3500 
L 1478 3500 
L 1363 2950 
Q 1603 3253 1940 3418 
Q 2278 3584 2650 3584 
Q 3113 3584 3367 3334 
Q 3622 3084 3622 2631 
Q 3622 2519 3608 2391 
Q 3594 2263 3566 2113 
z
" transform="scale(0.015625)"/>
     <path id="DejaVuSans-Oblique-3d" d="M 678 2906 
L 4684 2906 
L 4684 2381 
L 678 2381 
L 678 2906 
z
M 678 1631 
L 4684 1631 
L 4684 1100 
L 678 1100 
L 678 1631 
z
" transform="scale(0.015625)"/>
     <path id="DejaVuSans-Oblique-34" d="M 2753 4666 
L 3547 4666 
L 2950 1625 
L 3616 1625 
L 3513 1100 
L 2847 1100 
L 2638 0 
L 2009 0 
L 2222 1100 
L 116 1100 
L 238 1709 
L 2753 4666 
z
M 2809 4116 
L 728 1625 
L 2322 1625 
L 2809 4116 
z
" transform="scale(0.015625)"/>
     <path id="DejaVuSans-Oblique-30" d="M 2444 4750 
Q 3078 4750 3414 4328 
Q 3750 3906 3750 3116 
Q 3750 2516 3592 1923 
Q 3434 1331 3150 863 
Q 2859 394 2467 151 
Q 2075 -91 1600 -91 
Q 988 -91 653 334 
Q 319 759 319 1544 
Q 319 2138 480 2733 
Q 641 3328 928 3794 
Q 1216 4263 1602 4506 
Q 1988 4750 2444 4750 
z
M 2406 4250 
Q 2169 4250 1955 4123 
Q 1741 3997 1569 3750 
Q 1281 3338 1111 2720 
Q 941 2103 941 1453 
Q 941 938 1123 673 
Q 1306 409 1663 409 
Q 1913 409 2125 536 
Q 2338 663 2509 909 
Q 2794 1319 2961 1936 
Q 3128 2553 3128 3206 
Q 3128 3722 2945 3986 
Q 2763 4250 2406 4250 
z
" transform="scale(0.015625)"/>
     <path id="DejaVuSans-Oblique-20" transform="scale(0.015625)"/>
     <path id="DejaVuSans-Oblique-70" d="M 3175 2156 
Q 3175 2616 2975 2859 
Q 2775 3103 2400 3103 
Q 2144 3103 1911 2972 
Q 1678 2841 1497 2591 
Q 1319 2344 1212 1994 
Q 1106 1644 1106 1300 
Q 1106 863 1306 627 
Q 1506 391 1875 391 
Q 2147 391 2380 519 
Q 2613 647 2778 891 
Q 2956 1147 3065 1494 
Q 3175 1841 3175 2156 
z
M 1394 2969 
Q 1625 3272 1939 3428 
Q 2253 3584 2638 3584 
Q 3175 3584 3472 3232 
Q 3769 2881 3769 2247 
Q 3769 1728 3584 1258 
Q 3400 788 3053 416 
Q 2822 169 2531 39 
Q 2241 -91 1919 -91 
Q 1547 -91 1294 64 
Q 1041 219 916 525 
L 556 -1331 
L -19 -1331 
L 922 3500 
L 1497 3500 
L 1394 2969 
z
" transform="scale(0.015625)"/>
     <path id="DejaVuSans-Oblique-65" d="M 3078 2063 
Q 3088 2113 3092 2166 
Q 3097 2219 3097 2272 
Q 3097 2653 2873 2875 
Q 2650 3097 2266 3097 
Q 1838 3097 1509 2826 
Q 1181 2556 1013 2059 
L 3078 2063 
z
M 3578 1613 
L 903 1613 
Q 884 1494 878 1425 
Q 872 1356 872 1306 
Q 872 872 1139 634 
Q 1406 397 1894 397 
Q 2269 397 2603 481 
Q 2938 566 3225 728 
L 3116 159 
Q 2806 34 2476 -28 
Q 2147 -91 1806 -91 
Q 1078 -91 686 257 
Q 294 606 294 1247 
Q 294 1794 489 2264 
Q 684 2734 1063 3103 
Q 1306 3334 1642 3459 
Q 1978 3584 2356 3584 
Q 2950 3584 3301 3228 
Q 3653 2872 3653 2272 
Q 3653 2128 3634 1964 
Q 3616 1800 3578 1613 
z
" transform="scale(0.015625)"/>
     <path id="DejaVuSans-Oblique-72" d="M 2853 2969 
Q 2766 3016 2653 3041 
Q 2541 3066 2413 3066 
Q 1953 3066 1609 2717 
Q 1266 2369 1153 1784 
L 800 0 
L 225 0 
L 909 3500 
L 1484 3500 
L 1375 2956 
Q 1603 3259 1920 3421 
Q 2238 3584 2597 3584 
Q 2691 3584 2781 3573 
Q 2872 3563 2963 3538 
L 2853 2969 
z
" transform="scale(0.015625)"/>
     <path id="DejaVuSans-Oblique-6c" d="M 1172 4863 
L 1747 4863 
L 800 0 
L 225 0 
L 1172 4863 
z
" transform="scale(0.015625)"/>
     <path id="DejaVuSans-Oblique-76" d="M 459 3500 
L 1069 3500 
L 1581 525 
L 3256 3500 
L 3866 3500 
L 1875 0 
L 1100 0 
L 459 3500 
z
" transform="scale(0.015625)"/>
     <path id="DejaVuSans-Oblique-2e" d="M 525 794 
L 1184 794 
L 1031 0 
L 372 0 
L 525 794 
z
" transform="scale(0.015625)"/>
     <path id="DejaVuSans-Oblique-53" d="M 3859 4513 
L 3738 3897 
Q 3422 4066 3111 4152 
Q 2800 4238 2509 4238 
Q 1944 4238 1609 3991 
Q 1275 3744 1275 3334 
Q 1275 3109 1398 2989 
Q 1522 2869 2034 2731 
L 2413 2638 
Q 3053 2472 3303 2217 
Q 3553 1963 3553 1503 
Q 3553 797 2998 353 
Q 2444 -91 1538 -91 
Q 1166 -91 791 -17 
Q 416 56 38 206 
L 166 856 
Q 513 641 861 531 
Q 1209 422 1556 422 
Q 2147 422 2503 684 
Q 2859 947 2859 1369 
Q 2859 1650 2717 1795 
Q 2575 1941 2106 2059 
L 1728 2156 
Q 1081 2325 845 2545 
Q 609 2766 609 3163 
Q 609 3859 1145 4304 
Q 1681 4750 2541 4750 
Q 2875 4750 3203 4690 
Q 3531 4631 3859 4513 
z
" transform="scale(0.015625)"/>
     <path id="DejaVuSans-Oblique-6f" d="M 1625 -91 
Q 1009 -91 651 289 
Q 294 669 294 1325 
Q 294 1706 417 2101 
Q 541 2497 738 2766 
Q 1047 3184 1428 3384 
Q 1809 3584 2291 3584 
Q 2888 3584 3255 3212 
Q 3622 2841 3622 2241 
Q 3622 1825 3500 1412 
Q 3378 1000 3181 728 
Q 2875 309 2494 109 
Q 2113 -91 1625 -91 
z
M 891 1344 
Q 891 869 1089 633 
Q 1288 397 1691 397 
Q 2269 397 2648 901 
Q 3028 1406 3028 2181 
Q 3028 2634 2825 2865 
Q 2622 3097 2228 3097 
Q 1903 3097 1650 2945 
Q 1397 2794 1197 2484 
Q 1050 2253 970 1956 
Q 891 1659 891 1344 
z
" transform="scale(0.015625)"/>
     <path id="DejaVuSans-Oblique-75" d="M 428 1388 
L 838 3500 
L 1416 3500 
L 1006 1409 
Q 975 1256 961 1147 
Q 947 1038 947 966 
Q 947 700 1109 554 
Q 1272 409 1569 409 
Q 2031 409 2368 721 
Q 2706 1034 2809 1563 
L 3194 3500 
L 3769 3500 
L 3091 0 
L 2516 0 
L 2631 550 
Q 2388 244 2052 76 
Q 1716 -91 1338 -91 
Q 878 -91 622 161 
Q 366 413 366 863 
Q 366 956 381 1097 
Q 397 1238 428 1388 
z
" transform="scale(0.015625)"/>
     <path id="DejaVuSans-Oblique-63" d="M 3431 3366 
L 3316 2797 
Q 3109 2947 2876 3022 
Q 2644 3097 2394 3097 
Q 2119 3097 1870 3000 
Q 1622 2903 1453 2725 
Q 1184 2453 1037 2087 
Q 891 1722 891 1331 
Q 891 859 1127 628 
Q 1363 397 1844 397 
Q 2081 397 2348 469 
Q 2616 541 2906 684 
L 2797 116 
Q 2547 13 2283 -39 
Q 2019 -91 1741 -91 
Q 1044 -91 669 257 
Q 294 606 294 1253 
Q 294 1797 489 2255 
Q 684 2713 1069 3078 
Q 1331 3328 1684 3456 
Q 2038 3584 2456 3584 
Q 2700 3584 2940 3529 
Q 3181 3475 3431 3366 
z
" transform="scale(0.015625)"/>
     <path id="DejaVuSans-Oblique-3a" d="M 978 3309 
L 1638 3309 
L 1484 2516 
L 825 2516 
L 978 3309 
z
M 488 794 
L 1147 794 
L 991 0 
L 331 0 
L 488 794 
z
" transform="scale(0.015625)"/>
     <path id="DejaVuSans-Oblique-66" d="M 3059 4863 
L 2969 4384 
L 2419 4384 
Q 2106 4384 1964 4261 
Q 1822 4138 1753 3809 
L 1691 3500 
L 2638 3500 
L 2553 3053 
L 1606 3053 
L 1013 0 
L 434 0 
L 1031 3053 
L 481 3053 
L 563 3500 
L 1113 3500 
L 1159 3744 
Q 1278 4363 1576 4613 
Q 1875 4863 2516 4863 
L 3059 4863 
z
" transform="scale(0.015625)"/>
     <path id="DejaVuSans-Oblique-5f" d="M 3263 -1063 
L 3263 -1509 
L -63 -1509 
L -63 -1063 
L 3263 -1063 
z
" transform="scale(0.015625)"/>
     <path id="DejaVuSans-Oblique-74" d="M 2706 3500 
L 2619 3053 
L 1472 3053 
L 1100 1153 
Q 1081 1047 1072 975 
Q 1063 903 1063 863 
Q 1063 663 1183 572 
Q 1303 481 1569 481 
L 2150 481 
L 2053 0 
L 1503 0 
Q 991 0 739 200 
Q 488 400 488 806 
Q 488 878 497 964 
Q 506 1050 525 1153 
L 897 3053 
L 409 3053 
L 500 3500 
L 978 3500 
L 1172 4494 
L 1747 4494 
L 1556 3500 
L 2706 3500 
z
" transform="scale(0.015625)"/>
     <path id="DejaVuSans-Oblique-28" d="M 2731 4856 
Q 1903 3822 1495 2892 
Q 1088 1963 1088 1100 
Q 1088 606 1206 120 
Q 1325 -366 1563 -844 
L 1063 -844 
Q 775 -306 634 201 
Q 494 709 494 1197 
Q 494 2125 923 3036 
Q 1353 3947 2222 4856 
L 2731 4856 
z
" transform="scale(0.015625)"/>
     <path id="DejaVuSans-Oblique-32" d="M 2950 2253 
L 934 525 
L 3163 525 
L 3053 0 
L 25 0 
L 128 531 
L 2234 2338 
Q 2656 2703 2832 2979 
Q 3009 3256 3009 3547 
Q 3009 3850 2796 4040 
Q 2584 4231 2241 4231 
Q 1944 4231 1581 4125 
Q 1219 4019 806 3816 
L 922 4441 
Q 1309 4594 1662 4672 
Q 2016 4750 2316 4750 
Q 2928 4750 3301 4425 
Q 3675 4100 3675 3572 
Q 3675 3216 3497 2892 
Q 3319 2569 2950 2253 
z
" transform="scale(0.015625)"/>
     <path id="DejaVuSans-Oblique-36" d="M 2938 1728 
Q 2938 2125 2734 2354 
Q 2531 2584 2181 2584 
Q 1697 2584 1367 2211 
Q 1038 1838 1038 1288 
Q 1038 875 1239 642 
Q 1441 409 1797 409 
Q 2284 409 2611 792 
Q 2938 1175 2938 1728 
z
M 3788 4556 
L 3681 3981 
Q 3500 4100 3265 4162 
Q 3031 4225 2766 4225 
Q 2119 4225 1726 3819 
Q 1334 3413 1141 2547 
Q 1369 2813 1670 2948 
Q 1972 3084 2322 3084 
Q 2894 3084 3233 2754 
Q 3572 2425 3572 1869 
Q 3572 1413 3405 1020 
Q 3238 628 2919 331 
Q 2700 128 2409 18 
Q 2119 -91 1791 -91 
Q 1147 -91 775 318 
Q 403 728 403 1441 
Q 403 2103 573 2717 
Q 744 3331 1050 3781 
Q 1372 4256 1830 4503 
Q 2288 4750 2841 4750 
Q 3084 4750 3321 4701 
Q 3559 4653 3788 4556 
z
" transform="scale(0.015625)"/>
     <path id="DejaVuSans-Oblique-2d" d="M 391 2009 
L 2075 2009 
L 1978 1497 
L 288 1497 
L 391 2009 
z
" transform="scale(0.015625)"/>
     <path id="DejaVuSans-Oblique-33" d="M 1013 4550 
Q 1356 4650 1679 4700 
Q 2003 4750 2316 4750 
Q 2934 4750 3296 4475 
Q 3659 4200 3659 3738 
Q 3659 3284 3373 2959 
Q 3088 2634 2584 2516 
Q 2978 2403 3162 2165 
Q 3347 1928 3347 1538 
Q 3347 1163 3167 834 
Q 2988 506 2650 269 
Q 2394 88 2037 -1 
Q 1681 -91 1216 -91 
Q 922 -91 622 -33 
Q 322 25 13 141 
L 128 738 
Q 422 575 720 495 
Q 1019 416 1331 416 
Q 1947 416 2330 733 
Q 2713 1050 2713 1556 
Q 2713 1881 2469 2057 
Q 2225 2234 1772 2234 
L 1228 2234 
L 1325 2747 
L 1900 2747 
Q 2419 2747 2717 2984 
Q 3016 3222 3016 3628 
Q 3016 3922 2797 4083 
Q 2578 4244 2181 4244 
Q 1881 4244 1567 4180 
Q 1253 4116 916 3988 
L 1013 4550 
z
" transform="scale(0.015625)"/>
     <path id="DejaVuSans-Oblique-31" d="M 416 531 
L 1447 531 
L 2144 4122 
L 978 3897 
L 1088 4441 
L 2247 4666 
L 2881 4666 
L 2075 531 
L 3103 531 
L 3003 0 
L 313 0 
L 416 531 
z
" transform="scale(0.015625)"/>
     <path id="DejaVuSans-Oblique-29" d="M -397 -844 
Q 434 191 840 1120 
Q 1247 2050 1247 2913 
Q 1247 3406 1130 3892 
Q 1013 4378 775 4856 
L 1275 4856 
Q 1563 4316 1703 3812 
Q 1844 3309 1844 2822 
Q 1844 1891 1411 973 
Q 978 56 116 -844 
L -397 -844 
z
" transform="scale(0.015625)"/>
     <path id="DejaVuSans-Oblique-69" d="M 1172 4863 
L 1747 4863 
L 1606 4134 
L 1031 4134 
L 1172 4863 
z
M 909 3500 
L 1484 3500 
L 800 0 
L 225 0 
L 909 3500 
z
" transform="scale(0.015625)"/>
     <path id="DejaVuSans-Oblique-67" d="M 3816 3500 
L 3219 434 
Q 3047 -456 2561 -893 
Q 2075 -1331 1253 -1331 
Q 950 -1331 690 -1286 
Q 431 -1241 206 -1147 
L 313 -588 
Q 525 -725 762 -790 
Q 1000 -856 1269 -856 
Q 1816 -856 2167 -557 
Q 2519 -259 2631 300 
L 2681 563 
Q 2441 288 2122 144 
Q 1803 0 1434 0 
Q 903 0 598 351 
Q 294 703 294 1319 
Q 294 1803 478 2267 
Q 663 2731 997 3091 
Q 1219 3328 1514 3456 
Q 1809 3584 2131 3584 
Q 2484 3584 2746 3420 
Q 3009 3256 3138 2956 
L 3238 3500 
L 3816 3500 
z
M 2950 2216 
Q 2950 2641 2750 2872 
Q 2550 3103 2181 3103 
Q 1953 3103 1747 3012 
Q 1541 2922 1394 2759 
Q 1156 2491 1023 2127 
Q 891 1763 891 1375 
Q 891 944 1092 712 
Q 1294 481 1672 481 
Q 2219 481 2584 976 
Q 2950 1472 2950 2216 
z
" transform="scale(0.015625)"/>
     <path id="DejaVuSans-Oblique-51" d="M 2309 -84 
Q 2275 -88 2237 -89 
Q 2200 -91 2125 -91 
Q 1250 -91 756 411 
Q 263 913 263 1797 
Q 263 2319 452 2844 
Q 641 3369 978 3788 
Q 1369 4269 1858 4509 
Q 2347 4750 2938 4750 
Q 3794 4750 4287 4245 
Q 4781 3741 4781 2869 
Q 4781 1928 4265 1147 
Q 3750 366 2919 44 
L 3553 -825 
L 2847 -825 
L 2309 -84 
z
M 2919 4238 
Q 2400 4238 2003 3986 
Q 1606 3734 1313 3219 
Q 1125 2891 1026 2522 
Q 928 2153 928 1778 
Q 928 1128 1239 775 
Q 1550 422 2119 422 
Q 2631 422 3032 676 
Q 3434 931 3719 1434 
Q 3909 1772 4009 2142 
Q 4109 2513 4109 2881 
Q 4109 3528 3796 3883 
Q 3484 4238 2919 4238 
z
" transform="scale(0.015625)"/>
     <path id="DejaVuSans-Oblique-43" d="M 4447 4306 
L 4319 3641 
Q 4019 3944 3683 4091 
Q 3347 4238 2956 4238 
Q 2422 4238 2017 3981 
Q 1613 3725 1319 3200 
Q 1131 2863 1032 2486 
Q 934 2109 934 1728 
Q 934 1091 1264 756 
Q 1594 422 2222 422 
Q 2656 422 3056 561 
Q 3456 700 3834 978 
L 3688 231 
Q 3316 72 2936 -9 
Q 2556 -91 2175 -91 
Q 1278 -91 773 396 
Q 269 884 269 1753 
Q 269 2309 461 2846 
Q 653 3384 1013 3828 
Q 1394 4300 1883 4525 
Q 2372 4750 3022 4750 
Q 3422 4750 3780 4639 
Q 4138 4528 4447 4306 
z
" transform="scale(0.015625)"/>
     <path id="DejaVuSans-Oblique-79" d="M 1588 -325 
Q 1188 -997 936 -1164 
Q 684 -1331 294 -1331 
L -159 -1331 
L -63 -850 
L 269 -850 
Q 509 -850 678 -719 
Q 847 -588 1056 -206 
L 1234 128 
L 459 3500 
L 1069 3500 
L 1650 819 
L 3256 3500 
L 3859 3500 
L 1588 -325 
z
" transform="scale(0.015625)"/>
     <path id="DejaVuSans-Oblique-2014" d="M 356 1978 
L 6131 1978 
L 6044 1528 
L 269 1528 
L 356 1978 
z
" transform="scale(0.015625)"/>
     <path id="DejaVuSans-Oblique-46" d="M 1081 4666 
L 3756 4666 
L 3653 4134 
L 1606 4134 
L 1338 2759 
L 3188 2759 
L 3084 2228 
L 1234 2228 
L 800 0 
L 172 0 
L 1081 4666 
z
" transform="scale(0.015625)"/>
     <path id="DejaVuSans-Oblique-2f" d="M 2175 4666 
L 2731 4666 
L 84 -594 
L -469 -594 
L 2175 4666 
z
" transform="scale(0.015625)"/>
     <path id="DejaVuSans-Oblique-50" d="M 1081 4666 
L 2541 4666 
Q 3178 4666 3512 4369 
Q 3847 4072 3847 3500 
Q 3847 2731 3353 2303 
Q 2859 1875 1966 1875 
L 1172 1875 
L 806 0 
L 172 0 
L 1081 4666 
z
M 1613 4147 
L 1275 2394 
L 2069 2394 
Q 2606 2394 2893 2669 
Q 3181 2944 3181 3456 
Q 3181 3784 2986 3965 
Q 2791 4147 2438 4147 
L 1613 4147 
z
" transform="scale(0.015625)"/>
     <path id="DejaVuSans-Oblique-73" d="M 3200 3397 
L 3091 2853 
Q 2863 2978 2609 3040 
Q 2356 3103 2088 3103 
Q 1634 3103 1373 2948 
Q 1113 2794 1113 2528 
Q 1113 2219 1719 2053 
Q 1766 2041 1788 2034 
L 1972 1978 
Q 2547 1819 2739 1644 
Q 2931 1469 2931 1166 
Q 2931 609 2489 259 
Q 2047 -91 1331 -91 
Q 1053 -91 747 -37 
Q 441 16 72 128 
L 184 722 
Q 500 559 806 475 
Q 1113 391 1394 391 
Q 1816 391 2080 572 
Q 2344 753 2344 1031 
Q 2344 1331 1650 1516 
L 1591 1531 
L 1394 1581 
Q 956 1697 753 1886 
Q 550 2075 550 2369 
Q 550 2928 970 3256 
Q 1391 3584 2113 3584 
Q 2397 3584 2667 3537 
Q 2938 3491 3200 3397 
z
" transform="scale(0.015625)"/>
    </defs>
    <use xlink:href="#DejaVuSans-Oblique-6e"/>
    <use xlink:href="#DejaVuSans-Oblique-3d" x="63.378906"/>
    <use xlink:href="#DejaVuSans-Oblique-34" x="147.167969"/>
    <use xlink:href="#DejaVuSans-Oblique-30" x="210.791016"/>
    <use xlink:href="#DejaVuSans-Oblique-30" x="274.414062"/>
    <use xlink:href="#DejaVuSans-Oblique-20" x="338.037109"/>
    <use xlink:href="#DejaVuSans-Oblique-70" x="369.824219"/>
    <use xlink:href="#DejaVuSans-Oblique-65" x="433.300781"/>
    <use xlink:href="#DejaVuSans-Oblique-72" x="494.824219"/>
    <use xlink:href="#DejaVuSans-Oblique-20" x="535.9375"/>
    <use xlink:href="#DejaVuSans-Oblique-6c" x="567.724609"/>
    <use xlink:href="#DejaVuSans-Oblique-65" x="595.507812"/>
    <use xlink:href="#DejaVuSans-Oblique-76" x="657.03125"/>
    <use xlink:href="#DejaVuSans-Oblique-65" x="716.210938"/>
    <use xlink:href="#DejaVuSans-Oblique-6c" x="777.734375"/>
    <use xlink:href="#DejaVuSans-Oblique-2e" x="805.517578"/>
    <use xlink:href="#DejaVuSans-Oblique-20" x="837.304688"/>
    <use xlink:href="#DejaVuSans-Oblique-53" x="869.091797"/>
    <use xlink:href="#DejaVuSans-Oblique-6f" x="932.568359"/>
    <use xlink:href="#DejaVuSans-Oblique-75" x="993.75"/>
    <use xlink:href="#DejaVuSans-Oblique-72" x="1057.128906"/>
    <use xlink:href="#DejaVuSans-Oblique-63" x="1098.242188"/>
    <use xlink:href="#DejaVuSans-Oblique-65" x="1153.222656"/>
    <use xlink:href="#DejaVuSans-Oblique-3a" x="1214.746094"/>
    <use xlink:href="#DejaVuSans-Oblique-20" x="1248.4375"/>
    <use xlink:href="#DejaVuSans-Oblique-66" x="1280.224609"/>
    <use xlink:href="#DejaVuSans-Oblique-75" x="1315.429688"/>
    <use xlink:href="#DejaVuSans-Oblique-6c" x="1378.808594"/>
    <use xlink:href="#DejaVuSans-Oblique-6c" x="1406.591797"/>
    <use xlink:href="#DejaVuSans-Oblique-5f" x="1434.375"/>
    <use xlink:href="#DejaVuSans-Oblique-72" x="1484.375"/>
    <use xlink:href="#DejaVuSans-Oblique-65" x="1525.488281"/>
    <use xlink:href="#DejaVuSans-Oblique-70" x="1587.011719"/>
    <use xlink:href="#DejaVuSans-Oblique-6f" x="1650.488281"/>
    <use xlink:href="#DejaVuSans-Oblique-72" x="1711.669922"/>
    <use xlink:href="#DejaVuSans-Oblique-74" x="1752.783203"/>
    <use xlink:href="#DejaVuSans-Oblique-20" x="1791.992188"/>
    <use xlink:href="#DejaVuSans-Oblique-72" x="1823.779297"/>
    <use xlink:href="#DejaVuSans-Oblique-75" x="1864.892578"/>
    <use xlink:href="#DejaVuSans-Oblique-6e" x="1928.271484"/>
    <use xlink:href="#DejaVuSans-Oblique-20" x="1991.650391"/>
    <use xlink:href="#DejaVuSans-Oblique-28" x="2023.4375"/>
    <use xlink:href="#DejaVuSans-Oblique-32" x="2062.451172"/>
    <use xlink:href="#DejaVuSans-Oblique-30" x="2126.074219"/>
    <use xlink:href="#DejaVuSans-Oblique-32" x="2189.697266"/>
    <use xlink:href="#DejaVuSans-Oblique-36" x="2253.320312"/>
    <use xlink:href="#DejaVuSans-Oblique-2d" x="2316.943359"/>
    <use xlink:href="#DejaVuSans-Oblique-30" x="2353.027344"/>
    <use xlink:href="#DejaVuSans-Oblique-33" x="2416.650391"/>
    <use xlink:href="#DejaVuSans-Oblique-2d" x="2480.273438"/>
    <use xlink:href="#DejaVuSans-Oblique-31" x="2516.357422"/>
    <use xlink:href="#DejaVuSans-Oblique-36" x="2579.980469"/>
    <use xlink:href="#DejaVuSans-Oblique-29" x="2643.603516"/>
    <use xlink:href="#DejaVuSans-Oblique-2e" x="2682.617188"/>
    <use xlink:href="#DejaVuSans-Oblique-20" x="2714.404297"/>
    <use xlink:href="#DejaVuSans-Oblique-53" x="2746.191406"/>
    <use xlink:href="#DejaVuSans-Oblique-69" x="2809.667969"/>
    <use xlink:href="#DejaVuSans-Oblique-6e" x="2837.451172"/>
    <use xlink:href="#DejaVuSans-Oblique-67" x="2900.830078"/>
    <use xlink:href="#DejaVuSans-Oblique-6c" x="2964.306641"/>
    <use xlink:href="#DejaVuSans-Oblique-65" x="2992.089844"/>
    <use xlink:href="#DejaVuSans-Oblique-2d" x="3053.613281"/>
    <use xlink:href="#DejaVuSans-Oblique-74" x="3089.697266"/>
    <use xlink:href="#DejaVuSans-Oblique-69" x="3128.90625"/>
    <use xlink:href="#DejaVuSans-Oblique-65" x="3156.689453"/>
    <use xlink:href="#DejaVuSans-Oblique-72" x="3218.212891"/>
    <use xlink:href="#DejaVuSans-Oblique-20" x="3259.326172"/>
    <use xlink:href="#DejaVuSans-Oblique-51" x="3291.113281"/>
    <use xlink:href="#DejaVuSans-Oblique-43" x="3369.824219"/>
    <use xlink:href="#DejaVuSans-Oblique-20" x="3439.648438"/>
    <use xlink:href="#DejaVuSans-Oblique-6f" x="3471.435547"/>
    <use xlink:href="#DejaVuSans-Oblique-6e" x="3532.617188"/>
    <use xlink:href="#DejaVuSans-Oblique-6c" x="3595.996094"/>
    <use xlink:href="#DejaVuSans-Oblique-79" x="3623.779297"/>
    <use xlink:href="#DejaVuSans-Oblique-20" x="3682.958984"/>
    <use xlink:href="#DejaVuSans-Oblique-2014" x="3714.746094"/>
    <use xlink:href="#DejaVuSans-Oblique-20" x="3814.746094"/>
    <use xlink:href="#DejaVuSans-Oblique-6e" x="3846.533203"/>
    <use xlink:href="#DejaVuSans-Oblique-6f" x="3909.912109"/>
    <use xlink:href="#DejaVuSans-Oblique-20" x="3971.09375"/>
    <use xlink:href="#DejaVuSans-Oblique-46" x="4002.880859"/>
    <use xlink:href="#DejaVuSans-Oblique-72" x="4060.400391"/>
    <use xlink:href="#DejaVuSans-Oblique-65" x="4101.513672"/>
    <use xlink:href="#DejaVuSans-Oblique-65" x="4163.037109"/>
    <use xlink:href="#DejaVuSans-Oblique-2f" x="4224.560547"/>
    <use xlink:href="#DejaVuSans-Oblique-50" x="4258.251953"/>
    <use xlink:href="#DejaVuSans-Oblique-72" x="4318.554688"/>
    <use xlink:href="#DejaVuSans-Oblique-6f" x="4359.667969"/>
    <use xlink:href="#DejaVuSans-Oblique-20" x="4420.849609"/>
    <use xlink:href="#DejaVuSans-Oblique-73" x="4452.636719"/>
    <use xlink:href="#DejaVuSans-Oblique-70" x="4504.736328"/>
    <use xlink:href="#DejaVuSans-Oblique-6c" x="4568.212891"/>
    <use xlink:href="#DejaVuSans-Oblique-69" x="4595.996094"/>
    <use xlink:href="#DejaVuSans-Oblique-74" x="4623.779297"/>
    <use xlink:href="#DejaVuSans-Oblique-2e" x="4662.988281"/>
   </g>
  </g>
  <g id="text_19">
   <!-- This run tests a single QC tier (no Free/Pro split). -->
   <g style="fill: #6b7280" transform="translate(7.2 356.436562) scale(0.075 -0.075)">
    <defs>
     <path id="DejaVuSans-54" d="M -19 4666 
L 3928 4666 
L 3928 4134 
L 2272 4134 
L 2272 0 
L 1638 0 
L 1638 4134 
L -19 4134 
L -19 4666 
z
" transform="scale(0.015625)"/>
     <path id="DejaVuSans-46" d="M 628 4666 
L 3309 4666 
L 3309 4134 
L 1259 4134 
L 1259 2759 
L 3109 2759 
L 3109 2228 
L 1259 2228 
L 1259 0 
L 628 0 
L 628 4666 
z
" transform="scale(0.015625)"/>
     <path id="DejaVuSans-2f" d="M 1625 4666 
L 2156 4666 
L 531 -594 
L 0 -594 
L 1625 4666 
z
" transform="scale(0.015625)"/>
     <path id="DejaVuSans-2e" d="M 684 794 
L 1344 794 
L 1344 0 
L 684 0 
L 684 794 
z
" transform="scale(0.015625)"/>
    </defs>
    <use xlink:href="#DejaVuSans-54"/>
    <use xlink:href="#DejaVuSans-68" x="61.083984"/>
    <use xlink:href="#DejaVuSans-69" x="124.462891"/>
    <use xlink:href="#DejaVuSans-73" x="152.246094"/>
    <use xlink:href="#DejaVuSans-20" x="204.345703"/>
    <use xlink:href="#DejaVuSans-72" x="236.132812"/>
    <use xlink:href="#DejaVuSans-75" x="277.246094"/>
    <use xlink:href="#DejaVuSans-6e" x="340.625"/>
    <use xlink:href="#DejaVuSans-20" x="404.003906"/>
    <use xlink:href="#DejaVuSans-74" x="435.791016"/>
    <use xlink:href="#DejaVuSans-65" x="475"/>
    <use xlink:href="#DejaVuSans-73" x="536.523438"/>
    <use xlink:href="#DejaVuSans-74" x="588.623047"/>
    <use xlink:href="#DejaVuSans-73" x="627.832031"/>
    <use xlink:href="#DejaVuSans-20" x="679.931641"/>
    <use xlink:href="#DejaVuSans-61" x="711.71875"/>
    <use xlink:href="#DejaVuSans-20" x="772.998047"/>
    <use xlink:href="#DejaVuSans-73" x="804.785156"/>
    <use xlink:href="#DejaVuSans-69" x="856.884766"/>
    <use xlink:href="#DejaVuSans-6e" x="884.667969"/>
    <use xlink:href="#DejaVuSans-67" x="948.046875"/>
    <use xlink:href="#DejaVuSans-6c" x="1011.523438"/>
    <use xlink:href="#DejaVuSans-65" x="1039.306641"/>
    <use xlink:href="#DejaVuSans-20" x="1100.830078"/>
    <use xlink:href="#DejaVuSans-51" x="1132.617188"/>
    <use xlink:href="#DejaVuSans-43" x="1211.328125"/>
    <use xlink:href="#DejaVuSans-20" x="1281.152344"/>
    <use xlink:href="#DejaVuSans-74" x="1312.939453"/>
    <use xlink:href="#DejaVuSans-69" x="1352.148438"/>
    <use xlink:href="#DejaVuSans-65" x="1379.931641"/>
    <use xlink:href="#DejaVuSans-72" x="1441.455078"/>
    <use xlink:href="#DejaVuSans-20" x="1482.568359"/>
    <use xlink:href="#DejaVuSans-28" x="1514.355469"/>
    <use xlink:href="#DejaVuSans-6e" x="1553.369141"/>
    <use xlink:href="#DejaVuSans-6f" x="1616.748047"/>
    <use xlink:href="#DejaVuSans-20" x="1677.929688"/>
    <use xlink:href="#DejaVuSans-46" x="1709.716797"/>
    <use xlink:href="#DejaVuSans-72" x="1759.986328"/>
    <use xlink:href="#DejaVuSans-65" x="1798.849609"/>
    <use xlink:href="#DejaVuSans-65" x="1860.373047"/>
    <use xlink:href="#DejaVuSans-2f" x="1921.896484"/>
    <use xlink:href="#DejaVuSans-50" x="1955.587891"/>
    <use xlink:href="#DejaVuSans-72" x="2014.140625"/>
    <use xlink:href="#DejaVuSans-6f" x="2053.003906"/>
    <use xlink:href="#DejaVuSans-20" x="2114.185547"/>
    <use xlink:href="#DejaVuSans-73" x="2145.972656"/>
    <use xlink:href="#DejaVuSans-70" x="2198.072266"/>
    <use xlink:href="#DejaVuSans-6c" x="2261.548828"/>
    <use xlink:href="#DejaVuSans-69" x="2289.332031"/>
    <use xlink:href="#DejaVuSans-74" x="2317.115234"/>
    <use xlink:href="#DejaVuSans-29" x="2356.324219"/>
    <use xlink:href="#DejaVuSans-2e" x="2395.337891"/>
   </g>
   <!-- Source: full_report run, 2026-03-16. -->
   <g style="fill: #6b7280" transform="translate(7.2 364.834922) scale(0.075 -0.075)">
    <defs>
     <path id="DejaVuSans-3a" d="M 750 794 
L 1409 794 
L 1409 0 
L 750 0 
L 750 794 
z
M 750 3309 
L 1409 3309 
L 1409 2516 
L 750 2516 
L 750 3309 
z
" transform="scale(0.015625)"/>
     <path id="DejaVuSans-5f" d="M 3263 -1063 
L 3263 -1509 
L -63 -1509 
L -63 -1063 
L 3263 -1063 
z
" transform="scale(0.015625)"/>
     <path id="DejaVuSans-2c" d="M 750 794 
L 1409 794 
L 1409 256 
L 897 -744 
L 494 -744 
L 750 256 
L 750 794 
z
" transform="scale(0.015625)"/>
     <path id="DejaVuSans-2d" d="M 313 2009 
L 1997 2009 
L 1997 1497 
L 313 1497 
L 313 2009 
z
" transform="scale(0.015625)"/>
    </defs>
    <use xlink:href="#DejaVuSans-53"/>
    <use xlink:href="#DejaVuSans-6f" x="63.476562"/>
    <use xlink:href="#DejaVuSans-75" x="124.658203"/>
    <use xlink:href="#DejaVuSans-72" x="188.037109"/>
    <use xlink:href="#DejaVuSans-63" x="226.900391"/>
    <use xlink:href="#DejaVuSans-65" x="281.880859"/>
    <use xlink:href="#DejaVuSans-3a" x="343.404297"/>
    <use xlink:href="#DejaVuSans-20" x="377.095703"/>
    <use xlink:href="#DejaVuSans-66" x="408.882812"/>
    <use xlink:href="#DejaVuSans-75" x="444.087891"/>
    <use xlink:href="#DejaVuSans-6c" x="507.466797"/>
    <use xlink:href="#DejaVuSans-6c" x="535.25"/>
    <use xlink:href="#DejaVuSans-5f" x="563.033203"/>
    <use xlink:href="#DejaVuSans-72" x="613.033203"/>
    <use xlink:href="#DejaVuSans-65" x="651.896484"/>
    <use xlink:href="#DejaVuSans-70" x="713.419922"/>
    <use xlink:href="#DejaVuSans-6f" x="776.896484"/>
    <use xlink:href="#DejaVuSans-72" x="838.078125"/>
    <use xlink:href="#DejaVuSans-74" x="879.191406"/>
    <use xlink:href="#DejaVuSans-20" x="918.400391"/>
    <use xlink:href="#DejaVuSans-72" x="950.1875"/>
    <use xlink:href="#DejaVuSans-75" x="991.300781"/>
    <use xlink:href="#DejaVuSans-6e" x="1054.679688"/>
    <use xlink:href="#DejaVuSans-2c" x="1118.058594"/>
    <use xlink:href="#DejaVuSans-20" x="1149.845703"/>
    <use xlink:href="#DejaVuSans-32" x="1181.632812"/>
    <use xlink:href="#DejaVuSans-30" x="1245.255859"/>
    <use xlink:href="#DejaVuSans-32" x="1308.878906"/>
    <use xlink:href="#DejaVuSans-36" x="1372.501953"/>
    <use xlink:href="#DejaVuSans-2d" x="1436.125"/>
    <use xlink:href="#DejaVuSans-30" x="1472.208984"/>
    <use xlink:href="#DejaVuSans-33" x="1535.832031"/>
    <use xlink:href="#DejaVuSans-2d" x="1599.455078"/>
    <use xlink:href="#DejaVuSans-31" x="1635.539062"/>
    <use xlink:href="#DejaVuSans-36" x="1699.162109"/>
    <use xlink:href="#DejaVuSans-2e" x="1762.785156"/>
   </g>
   <!-- This chart is not directly comparable to BENCH-006 (different run, URL, config labels). -->
   <g style="fill: #6b7280" transform="translate(7.2 373.441875) scale(0.075 -0.075)">
    <defs>
     <path id="DejaVuSans-45" d="M 628 4666 
L 3578 4666 
L 3578 4134 
L 1259 4134 
L 1259 2753 
L 3481 2753 
L 3481 2222 
L 1259 2222 
L 1259 531 
L 3634 531 
L 3634 0 
L 628 0 
L 628 4666 
z
" transform="scale(0.015625)"/>
     <path id="DejaVuSans-4e" d="M 628 4666 
L 1478 4666 
L 3547 763 
L 3547 4666 
L 4159 4666 
L 4159 0 
L 3309 0 
L 1241 3903 
L 1241 0 
L 628 0 
L 628 4666 
z
" transform="scale(0.015625)"/>
     <path id="DejaVuSans-48" d="M 628 4666 
L 1259 4666 
L 1259 2753 
L 3553 2753 
L 3553 4666 
L 4184 4666 
L 4184 0 
L 3553 0 
L 3553 2222 
L 1259 2222 
L 1259 0 
L 628 0 
L 628 4666 
z
" transform="scale(0.015625)"/>
     <path id="DejaVuSans-55" d="M 556 4666 
L 1191 4666 
L 1191 1831 
Q 1191 1081 1462 751 
Q 1734 422 2344 422 
Q 2950 422 3222 751 
Q 3494 1081 3494 1831 
L 3494 4666 
L 4128 4666 
L 4128 1753 
Q 4128 841 3676 375 
Q 3225 -91 2344 -91 
Q 1459 -91 1007 375 
Q 556 841 556 1753 
L 556 4666 
z
" transform="scale(0.015625)"/>
    </defs>
    <use xlink:href="#DejaVuSans-54"/>
    <use xlink:href="#DejaVuSans-68" x="61.083984"/>
    <use xlink:href="#DejaVuSans-69" x="124.462891"/>
    <use xlink:href="#DejaVuSans-73" x="152.246094"/>
    <use xlink:href="#DejaVuSans-20" x="204.345703"/>
    <use xlink:href="#DejaVuSans-63" x="236.132812"/>
    <use xlink:href="#DejaVuSans-68" x="291.113281"/>
    <use xlink:href="#DejaVuSans-61" x="354.492188"/>
    <use xlink:href="#DejaVuSans-72" x="415.771484"/>
    <use xlink:href="#DejaVuSans-74" x="456.884766"/>
    <use xlink:href="#DejaVuSans-20" x="496.09375"/>
    <use xlink:href="#DejaVuSans-69" x="527.880859"/>
    <use xlink:href="#DejaVuSans-73" x="555.664062"/>
    <use xlink:href="#DejaVuSans-20" x="607.763672"/>
    <use xlink:href="#DejaVuSans-6e" x="639.550781"/>
    <use xlink:href="#DejaVuSans-6f" x="702.929688"/>
    <use xlink:href="#DejaVuSans-74" x="764.111328"/>
    <use xlink:href="#DejaVuSans-20" x="803.320312"/>
    <use xlink:href="#DejaVuSans-64" x="835.107422"/>
    <use xlink:href="#DejaVuSans-69" x="898.583984"/>
    <use xlink:href="#DejaVuSans-72" x="926.367188"/>
    <use xlink:href="#DejaVuSans-65" x="965.230469"/>
    <use xlink:href="#DejaVuSans-63" x="1026.753906"/>
    <use xlink:href="#DejaVuSans-74" x="1081.734375"/>
    <use xlink:href="#DejaVuSans-6c" x="1120.943359"/>
    <use xlink:href="#DejaVuSans-79" x="1148.726562"/>
    <use xlink:href="#DejaVuSans-20" x="1207.90625"/>
    <use xlink:href="#DejaVuSans-63" x="1239.693359"/>
    <use xlink:href="#DejaVuSans-6f" x="1294.673828"/>
    <use xlink:href="#DejaVuSans-6d" x="1355.855469"/>
    <use xlink:href="#DejaVuSans-70" x="1453.267578"/>
    <use xlink:href="#DejaVuSans-61" x="1516.744141"/>
    <use xlink:href="#DejaVuSans-72" x="1578.023438"/>
    <use xlink:href="#DejaVuSans-61" x="1619.136719"/>
    <use xlink:href="#DejaVuSans-62" x="1680.416016"/>
    <use xlink:href="#DejaVuSans-6c" x="1743.892578"/>
    <use xlink:href="#DejaVuSans-65" x="1771.675781"/>
    <use xlink:href="#DejaVuSans-20" x="1833.199219"/>
    <use xlink:href="#DejaVuSans-74" x="1864.986328"/>
    <use xlink:href="#DejaVuSans-6f" x="1904.195312"/>
    <use xlink:href="#DejaVuSans-20" x="1965.376953"/>
    <use xlink:href="#DejaVuSans-42" x="1997.164062"/>
    <use xlink:href="#DejaVuSans-45" x="2065.767578"/>
    <use xlink:href="#DejaVuSans-4e" x="2128.951172"/>
    <use xlink:href="#DejaVuSans-43" x="2203.755859"/>
    <use xlink:href="#DejaVuSans-48" x="2273.580078"/>
    <use xlink:href="#DejaVuSans-2d" x="2348.775391"/>
    <use xlink:href="#DejaVuSans-30" x="2384.859375"/>
    <use xlink:href="#DejaVuSans-30" x="2448.482422"/>
    <use xlink:href="#DejaVuSans-36" x="2512.105469"/>
    <use xlink:href="#DejaVuSans-20" x="2575.728516"/>
    <use xlink:href="#DejaVuSans-28" x="2607.515625"/>
    <use xlink:href="#DejaVuSans-64" x="2646.529297"/>
    <use xlink:href="#DejaVuSans-69" x="2710.005859"/>
    <use xlink:href="#DejaVuSans-66" x="2737.789062"/>
    <use xlink:href="#DejaVuSans-66" x="2772.994141"/>
    <use xlink:href="#DejaVuSans-65" x="2808.199219"/>
    <use xlink:href="#DejaVuSans-72" x="2869.722656"/>
    <use xlink:href="#DejaVuSans-65" x="2908.585938"/>
    <use xlink:href="#DejaVuSans-6e" x="2970.109375"/>
    <use xlink:href="#DejaVuSans-74" x="3033.488281"/>
    <use xlink:href="#DejaVuSans-20" x="3072.697266"/>
    <use xlink:href="#DejaVuSans-72" x="3104.484375"/>
    <use xlink:href="#DejaVuSans-75" x="3145.597656"/>
    <use xlink:href="#DejaVuSans-6e" x="3208.976562"/>
    <use xlink:href="#DejaVuSans-2c" x="3272.355469"/>
    <use xlink:href="#DejaVuSans-20" x="3304.142578"/>
    <use xlink:href="#DejaVuSans-55" x="3335.929688"/>
    <use xlink:href="#DejaVuSans-52" x="3409.123047"/>
    <use xlink:href="#DejaVuSans-4c" x="3478.605469"/>
    <use xlink:href="#DejaVuSans-2c" x="3534.318359"/>
    <use xlink:href="#DejaVuSans-20" x="3566.105469"/>
    <use xlink:href="#DejaVuSans-63" x="3597.892578"/>
    <use xlink:href="#DejaVuSans-6f" x="3652.873047"/>
    <use xlink:href="#DejaVuSans-6e" x="3714.054688"/>
    <use xlink:href="#DejaVuSans-66" x="3777.433594"/>
    <use xlink:href="#DejaVuSans-69" x="3812.638672"/>
    <use xlink:href="#DejaVuSans-67" x="3840.421875"/>
    <use xlink:href="#DejaVuSans-20" x="3903.898438"/>
    <use xlink:href="#DejaVuSans-6c" x="3935.685547"/>
    <use xlink:href="#DejaVuSans-61" x="3963.46875"/>
    <use xlink:href="#DejaVuSans-62" x="4024.748047"/>
    <use xlink:href="#DejaVuSans-65" x="4088.224609"/>
    <use xlink:href="#DejaVuSans-6c" x="4149.748047"/>
    <use xlink:href="#DejaVuSans-73" x="4177.53125"/>
    <use xlink:href="#DejaVuSans-29" x="4229.630859"/>
    <use xlink:href="#DejaVuSans-2e" x="4268.644531"/>
   </g>
   <!-- MySQL fallback line near baseline is the correct finding, not a rendering error. -->
   <g style="fill: #6b7280" transform="translate(7.2 381.840234) scale(0.075 -0.075)">
    <use xlink:href="#DejaVuSans-4d"/>
    <use xlink:href="#DejaVuSans-79" x="86.279297"/>
    <use xlink:href="#DejaVuSans-53" x="145.458984"/>
    <use xlink:href="#DejaVuSans-51" x="208.935547"/>
    <use xlink:href="#DejaVuSans-4c" x="287.646484"/>
    <use xlink:href="#DejaVuSans-20" x="343.359375"/>
    <use xlink:href="#DejaVuSans-66" x="375.146484"/>
    <use xlink:href="#DejaVuSans-61" x="410.351562"/>
    <use xlink:href="#DejaVuSans-6c" x="471.630859"/>
    <use xlink:href="#DejaVuSans-6c" x="499.414062"/>
    <use xlink:href="#DejaVuSans-62" x="527.197266"/>
    <use xlink:href="#DejaVuSans-61" x="590.673828"/>
    <use xlink:href="#DejaVuSans-63" x="651.953125"/>
    <use xlink:href="#DejaVuSans-6b" x="706.933594"/>
    <use xlink:href="#DejaVuSans-20" x="764.84375"/>
    <use xlink:href="#DejaVuSans-6c" x="796.630859"/>
    <use xlink:href="#DejaVuSans-69" x="824.414062"/>
    <use xlink:href="#DejaVuSans-6e" x="852.197266"/>
    <use xlink:href="#DejaVuSans-65" x="915.576172"/>
    <use xlink:href="#DejaVuSans-20" x="977.099609"/>
    <use xlink:href="#DejaVuSans-6e" x="1008.886719"/>
    <use xlink:href="#DejaVuSans-65" x="1072.265625"/>
    <use xlink:href="#DejaVuSans-61" x="1133.789062"/>
    <use xlink:href="#DejaVuSans-72" x="1195.068359"/>
    <use xlink:href="#DejaVuSans-20" x="1236.181641"/>
    <use xlink:href="#DejaVuSans-62" x="1267.96875"/>
    <use xlink:href="#DejaVuSans-61" x="1331.445312"/>
    <use xlink:href="#DejaVuSans-73" x="1392.724609"/>
    <use xlink:href="#DejaVuSans-65" x="1444.824219"/>
    <use xlink:href="#DejaVuSans-6c" x="1506.347656"/>
    <use xlink:href="#DejaVuSans-69" x="1534.130859"/>
    <use xlink:href="#DejaVuSans-6e" x="1561.914062"/>
    <use xlink:href="#DejaVuSans-65" x="1625.292969"/>
    <use xlink:href="#DejaVuSans-20" x="1686.816406"/>
    <use xlink:href="#DejaVuSans-69" x="1718.603516"/>
    <use xlink:href="#DejaVuSans-73" x="1746.386719"/>
    <use xlink:href="#DejaVuSans-20" x="1798.486328"/>
    <use xlink:href="#DejaVuSans-74" x="1830.273438"/>
    <use xlink:href="#DejaVuSans-68" x="1869.482422"/>
    <use xlink:href="#DejaVuSans-65" x="1932.861328"/>
    <use xlink:href="#DejaVuSans-20" x="1994.384766"/>
    <use xlink:href="#DejaVuSans-63" x="2026.171875"/>
    <use xlink:href="#DejaVuSans-6f" x="2081.152344"/>
    <use xlink:href="#DejaVuSans-72" x="2142.333984"/>
    <use xlink:href="#DejaVuSans-72" x="2181.697266"/>
    <use xlink:href="#DejaVuSans-65" x="2220.560547"/>
    <use xlink:href="#DejaVuSans-63" x="2282.083984"/>
    <use xlink:href="#DejaVuSans-74" x="2337.064453"/>
    <use xlink:href="#DejaVuSans-20" x="2376.273438"/>
    <use xlink:href="#DejaVuSans-66" x="2408.060547"/>
    <use xlink:href="#DejaVuSans-69" x="2443.265625"/>
    <use xlink:href="#DejaVuSans-6e" x="2471.048828"/>
    <use xlink:href="#DejaVuSans-64" x="2534.427734"/>
    <use xlink:href="#DejaVuSans-69" x="2597.904297"/>
    <use xlink:href="#DejaVuSans-6e" x="2625.6875"/>
    <use xlink:href="#DejaVuSans-67" x="2689.066406"/>
    <use xlink:href="#DejaVuSans-2c" x="2752.542969"/>
    <use xlink:href="#DejaVuSans-20" x="2784.330078"/>
    <use xlink:href="#DejaVuSans-6e" x="2816.117188"/>
    <use xlink:href="#DejaVuSans-6f" x="2879.496094"/>
    <use xlink:href="#DejaVuSans-74" x="2940.677734"/>
    <use xlink:href="#DejaVuSans-20" x="2979.886719"/>
    <use xlink:href="#DejaVuSans-61" x="3011.673828"/>
    <use xlink:href="#DejaVuSans-20" x="3072.953125"/>
    <use xlink:href="#DejaVuSans-72" x="3104.740234"/>
    <use xlink:href="#DejaVuSans-65" x="3143.603516"/>
    <use xlink:href="#DejaVuSans-6e" x="3205.126953"/>
    <use xlink:href="#DejaVuSans-64" x="3268.505859"/>
    <use xlink:href="#DejaVuSans-65" x="3331.982422"/>
    <use xlink:href="#DejaVuSans-72" x="3393.505859"/>
    <use xlink:href="#DejaVuSans-69" x="3434.619141"/>
    <use xlink:href="#DejaVuSans-6e" x="3462.402344"/>
    <use xlink:href="#DejaVuSans-67" x="3525.78125"/>
    <use xlink:href="#DejaVuSans-20" x="3589.257812"/>
    <use xlink:href="#DejaVuSans-65" x="3621.044922"/>
    <use xlink:href="#DejaVuSans-72" x="3682.568359"/>
    <use xlink:href="#DejaVuSans-72" x="3721.931641"/>
    <use xlink:href="#DejaVuSans-6f" x="3760.794922"/>
    <use xlink:href="#DejaVuSans-72" x="3821.976562"/>
    <use xlink:href="#DejaVuSans-2e" x="3853.964844"/>
   </g>
  </g>
 </g>
 <defs>
  <clipPath id="p00fcfe9a6d">
   <rect x="66.6" y="82.44" width="453.6" height="198"/>
  </clipPath>
 </defs>
</svg>
